<svg width="50" height="44" viewBox="0 0 50 44" fill="none" xmlns="http://www.w3.org/2000/svg">
<path d="M49.9935 22.2609V22.2479C49.9974 22.231 50 22.214 50 22.1958C50 22.1789 49.9974 22.1619 49.9935 22.145C49.9935 22.145 49.9935 22.1359 49.9935 22.132C49.9896 22.119 49.9844 22.1073 49.9792 22.0955C49.9792 22.0929 49.9792 22.089 49.9792 22.0864L37.582 0.677572V0.671061C37.5755 0.659342 37.5664 0.648926 37.5573 0.639811C37.5547 0.635905 37.5521 0.631999 37.5482 0.629395C37.5352 0.617676 37.5208 0.605957 37.5065 0.598145C37.4883 0.58903 37.4701 0.58252 37.4505 0.578613C37.4466 0.577311 37.4427 0.577311 37.4375 0.578613C37.4245 0.576009 37.4115 0.576009 37.3984 0.578613H12.5977C12.5833 0.576009 12.5703 0.576009 12.5573 0.578613C12.5534 0.577311 12.5482 0.577311 12.5443 0.578613C12.5273 0.58252 12.5117 0.58903 12.4961 0.598145C12.4805 0.605957 12.4674 0.617676 12.4544 0.629395C12.4505 0.633301 12.4479 0.635905 12.444 0.639811C12.4349 0.648926 12.4271 0.660645 12.4206 0.671061V0.677572L0.0221354 22.0864C0.0221354 22.089 0.0221354 22.0929 0.0221354 22.0955C0.0156248 22.1073 0.0104168 22.119 0.0078125 22.132C0.0078125 22.132 0.0078125 22.1398 0.0078125 22.145C0.00260417 22.1619 0 22.1789 0 22.1958C0 22.214 0.00260417 22.231 0.0078125 22.2479V22.2609C0.0104168 22.2739 0.0156248 22.2869 0.0221354 22.2987C0.0221354 22.2987 0.0221354 22.3039 0.0221354 22.3065L12.4141 43.7153V43.7231C12.4219 43.7336 12.4297 43.744 12.4388 43.7544L12.4492 43.7648C12.4609 43.7765 12.4753 43.7869 12.4909 43.7961C12.5065 43.8039 12.5221 43.8104 12.5391 43.8156C12.5586 43.8208 12.5768 43.8234 12.5964 43.8234H37.3854C37.4049 43.8234 37.4232 43.8208 37.4427 43.8156C37.4596 43.8104 37.4753 43.8039 37.4909 43.7961C37.5065 43.7869 37.5195 43.7765 37.5326 43.7648L37.5417 43.7544C37.5508 43.744 37.5586 43.7336 37.5664 43.7231V43.7153L49.9753 22.3065C49.9753 22.3065 49.9753 22.3013 49.9753 22.2987C49.9831 22.2869 49.9883 22.2739 49.9935 22.2609ZM37.3919 43.1672L25.3828 22.4159H49.3997L37.3919 43.1672ZM12.6068 1.22705L24.6146 21.9771H0.595052L12.6068 1.22705ZM25.0013 21.757L12.9935 1.0083H37.0104L25.0013 21.757ZM25.0013 22.6359L37.0104 43.3859H12.9935L25.0013 22.6359ZM25.3841 21.9771L26.0312 20.8586C26.0339 20.8716 26.0365 20.8846 26.0417 20.8976C26.069 20.9614 26.1185 20.994 26.1888 20.994C26.2578 20.994 26.3073 20.9614 26.3346 20.8976C26.3424 20.8781 26.3464 20.8573 26.3464 20.8364C26.3464 20.8039 26.3372 20.7752 26.319 20.7479C26.2878 20.701 26.2448 20.6776 26.1888 20.6776C26.1667 20.6776 26.1471 20.6828 26.1276 20.6906L27.7799 17.8338C27.7878 17.8351 27.7943 17.8351 27.8021 17.8338C27.8385 17.826 27.8698 17.8078 27.8932 17.7791C27.9167 17.7505 27.9284 17.7166 27.9284 17.6789C27.9284 17.6554 27.9219 17.632 27.9115 17.6112L30.0794 13.8651C30.1016 13.8755 30.125 13.8807 30.1497 13.882C30.194 13.882 30.2318 13.8664 30.2617 13.8351C30.293 13.8039 30.3086 13.7674 30.3086 13.7231C30.3086 13.6672 30.2852 13.6229 30.2383 13.5916L32.3997 9.85596C32.431 9.90153 32.474 9.92367 32.5299 9.92367C32.5716 9.92236 32.6068 9.90674 32.6354 9.87809C32.6654 9.84815 32.681 9.81299 32.6823 9.77132C32.6836 9.72966 32.6719 9.6932 32.6445 9.66195C32.6172 9.6307 32.5833 9.61247 32.5417 9.60856L34.2135 6.72184C34.2461 6.6958 34.2656 6.66195 34.2708 6.61898L34.7539 5.78695C34.7539 5.79346 34.7539 5.79997 34.7539 5.80648C34.7539 5.84945 34.7695 5.88721 34.8008 5.91846C34.832 5.94841 34.8685 5.96403 34.9128 5.96403C34.957 5.96403 34.9935 5.94841 35.0247 5.91846C35.056 5.88721 35.0716 5.84945 35.0716 5.80648C35.0716 5.76221 35.056 5.72575 35.0247 5.6945C34.9935 5.66325 34.957 5.64762 34.9128 5.64762C34.8776 5.64762 34.8464 5.65804 34.8177 5.68018L36.4857 2.79867H36.4987C36.5651 2.79867 36.612 2.77002 36.6419 2.71143C36.6706 2.65413 36.6654 2.59814 36.6263 2.54606L37.3919 1.22705L38.1198 2.48617C38.1081 2.48486 38.0951 2.48486 38.0833 2.48617C38.043 2.48486 38.0065 2.49919 37.9766 2.52653C37.9453 2.55387 37.9284 2.58773 37.9245 2.62809C37.9206 2.66846 37.9297 2.70492 37.9544 2.73877C37.9792 2.77132 38.0117 2.79085 38.0521 2.79867C38.0924 2.80648 38.1302 2.79997 38.1654 2.77913C38.1992 2.757 38.2227 2.72705 38.2344 2.68799L40.4128 6.44971H40.401C40.3372 6.47835 40.3047 6.52653 40.3047 6.59684C40.3047 6.66585 40.3372 6.71533 40.401 6.74268C40.4206 6.75049 40.4414 6.75439 40.4635 6.75439C40.4948 6.75439 40.5247 6.74528 40.5508 6.72835C40.5573 6.72835 40.5625 6.71794 40.5677 6.71403L42.7266 10.4497C42.6797 10.5005 42.6706 10.5578 42.6979 10.6203C42.7253 10.6841 42.7734 10.7153 42.8424 10.7153C42.8542 10.7179 42.8659 10.7179 42.8776 10.7153L45.0677 14.4966C45.0599 14.5252 45.0625 14.5526 45.0755 14.5799C45.0938 14.619 45.1224 14.6463 45.1628 14.6632L46.8151 17.5265H46.8047C46.7826 17.5265 46.763 17.5304 46.7422 17.5396C46.6784 17.5669 46.6458 17.6151 46.6458 17.6854C46.6458 17.7544 46.6784 17.8039 46.7422 17.8312C46.763 17.839 46.7826 17.8429 46.8047 17.8429C46.8359 17.8429 46.8659 17.8338 46.8932 17.8169C46.9167 17.8 46.9349 17.7791 46.9466 17.7544L49.1146 21.4992C49.0391 21.5356 49.0104 21.5955 49.0286 21.6776C49.0482 21.7583 49.1003 21.8 49.1836 21.7987C49.2161 21.7987 49.2461 21.7896 49.2721 21.7726L49.3984 21.9927L25.3841 21.9771Z" fill="white"/>
<path d="M48.3958 20.6763C48.3385 20.6776 48.2942 20.701 48.263 20.7466C48.2317 20.7948 48.2265 20.8442 48.2474 20.8963C48.2747 20.9601 48.3242 20.9927 48.3932 20.9927C48.4635 20.9927 48.5117 20.9601 48.5403 20.8963C48.5481 20.8768 48.5534 20.856 48.5534 20.8351C48.5534 20.8026 48.5442 20.7739 48.526 20.7466C48.4948 20.701 48.4505 20.6776 48.3958 20.6763Z" fill="white"/>
<path d="M47.6016 19.8877C47.5587 19.8877 47.5209 19.902 47.4897 19.9333C47.4597 19.9645 47.4441 20.001 47.4441 20.0452C47.4441 20.0882 47.4584 20.126 47.4897 20.1572C47.5209 20.1885 47.5574 20.2028 47.6016 20.2041C47.6446 20.2041 47.6824 20.1885 47.7136 20.1585C47.7449 20.1273 47.7605 20.0895 47.7605 20.0465C47.7618 20.0023 47.7462 19.9645 47.7149 19.9333C47.6837 19.9033 47.6459 19.8877 47.6016 19.8877Z" fill="white"/>
<path d="M46.8973 20.7046C46.8712 20.6877 46.8413 20.6772 46.8087 20.6772C46.7827 20.6772 46.7579 20.6838 46.7345 20.6968C46.7111 20.7098 46.6915 20.7267 46.6772 20.7489C46.6629 20.771 46.6538 20.7944 46.6512 20.8205C46.6486 20.8478 46.6525 20.8726 46.6629 20.8973C46.6798 20.9364 46.7072 20.965 46.7475 20.9819C46.7671 20.9897 46.7879 20.9937 46.8087 20.9937C46.8413 20.9937 46.8699 20.9858 46.8973 20.9676C46.9233 20.9494 46.9428 20.9259 46.9546 20.8973C46.9637 20.8778 46.9676 20.8569 46.9676 20.8361C46.9676 20.8035 46.9585 20.7749 46.9402 20.7476C46.9285 20.7306 46.9142 20.7163 46.8973 20.7046Z" fill="white"/>
<path d="M46.8975 19.1226C46.8714 19.1043 46.8415 19.0952 46.8089 19.0952C46.7881 19.0952 46.7673 19.0991 46.7477 19.1082C46.6826 19.1356 46.6514 19.1838 46.6514 19.2541C46.6514 19.3231 46.6826 19.3726 46.7477 19.3999C46.7673 19.4077 46.7881 19.4129 46.8089 19.4129C46.8415 19.4129 46.8714 19.4038 46.8975 19.3856C46.9196 19.37 46.9365 19.3517 46.9495 19.3283C46.9613 19.3049 46.9678 19.2801 46.9678 19.2541C46.9678 19.228 46.9613 19.2033 46.9495 19.1799C46.9365 19.1564 46.9196 19.1369 46.8975 19.1226Z" fill="white"/>
<path d="M47.6016 21.4697C47.5587 21.4697 47.5209 21.4854 47.4897 21.5153C47.4597 21.5465 47.4441 21.5843 47.4441 21.6273C47.4441 21.6715 47.4584 21.708 47.4897 21.7393C47.5209 21.7705 47.5574 21.7861 47.6016 21.7861C47.6446 21.7861 47.6824 21.7705 47.7136 21.7406C47.7449 21.7093 47.7605 21.6729 47.7605 21.6286C47.7618 21.5843 47.7462 21.5479 47.7149 21.5166C47.6837 21.4854 47.6459 21.4697 47.6016 21.4697Z" fill="white"/>
<path d="M44.4299 13.5576C44.3856 13.5576 44.3478 13.5732 44.3179 13.6032C44.2866 13.6344 44.271 13.6722 44.271 13.7152C44.271 13.7594 44.2866 13.7959 44.3179 13.8271C44.3478 13.8584 44.3856 13.874 44.4299 13.874C44.4728 13.874 44.5106 13.8584 44.5418 13.8271C44.5731 13.7959 44.5874 13.7594 44.5874 13.7152C44.5874 13.6722 44.5731 13.6344 44.5418 13.6032C44.5106 13.5732 44.4728 13.5576 44.4299 13.5576Z" fill="white"/>
<path d="M43.6359 14.3481C43.6098 14.3481 43.5851 14.3547 43.5617 14.3677C43.5382 14.3807 43.52 14.3976 43.5044 14.4198C43.49 14.4419 43.4809 14.4653 43.4783 14.4927C43.4757 14.5187 43.4796 14.5435 43.49 14.5682C43.5174 14.632 43.5656 14.6646 43.6359 14.6646C43.7062 14.6646 43.7544 14.632 43.7817 14.5682C43.7908 14.5487 43.7947 14.5278 43.7947 14.507C43.7947 14.4744 43.7856 14.4458 43.7674 14.4185C43.7361 14.3729 43.6932 14.3494 43.6359 14.3481Z" fill="white"/>
<path d="M43.6353 12.7646C43.5924 12.7646 43.5546 12.7803 43.5234 12.8115C43.4934 12.8428 43.4778 12.8792 43.4778 12.9235C43.4778 12.9665 43.4934 13.0042 43.5234 13.0355C43.5546 13.0654 43.5924 13.0811 43.6353 13.0811C43.6796 13.0811 43.7174 13.0654 43.7486 13.0355C43.7786 13.0042 43.7942 12.9665 43.7942 12.9235C43.7942 12.8792 43.7786 12.8428 43.7486 12.8115C43.7174 12.7803 43.6796 12.7646 43.6353 12.7646Z" fill="white"/>
<path d="M45.2226 17.5132C45.1783 17.5132 45.1405 17.5288 45.1106 17.5588C45.0793 17.59 45.0637 17.6278 45.0637 17.6707C45.0637 17.715 45.0793 17.7515 45.1106 17.7827C45.1405 17.814 45.1783 17.8296 45.2226 17.8296C45.2668 17.8296 45.3033 17.814 45.3346 17.7827C45.3658 17.7515 45.3814 17.715 45.3814 17.6707C45.3814 17.6278 45.3658 17.59 45.3346 17.5588C45.3033 17.5288 45.2668 17.5132 45.2226 17.5132Z" fill="white"/>
<path d="M45.2226 15.9312C45.1783 15.9312 45.1405 15.9455 45.1106 15.9767C45.0793 16.008 45.0637 16.0457 45.0637 16.0887C45.0637 16.133 45.0793 16.1694 45.1106 16.2007C45.1405 16.2319 45.1783 16.2476 45.2226 16.2476C45.2668 16.2476 45.3033 16.2319 45.3346 16.2007C45.3658 16.1694 45.3814 16.133 45.3814 16.0887C45.3814 16.0457 45.3658 16.008 45.3346 15.9767C45.3033 15.9455 45.2668 15.9312 45.2226 15.9312Z" fill="white"/>
<path d="M44.4299 16.7212C44.3856 16.7212 44.3478 16.7368 44.3179 16.7681C44.2866 16.7993 44.271 16.8358 44.271 16.88C44.271 16.923 44.2866 16.9608 44.3179 16.992C44.3478 17.022 44.3856 17.0376 44.4299 17.0376C44.4728 17.0376 44.5106 17.022 44.5418 16.992C44.5731 16.9608 44.5874 16.923 44.5874 16.88C44.5874 16.8358 44.5731 16.7993 44.5418 16.7681C44.5106 16.7368 44.4728 16.7212 44.4299 16.7212Z" fill="white"/>
<path d="M46.0155 16.7212C45.9713 16.7212 45.9348 16.7368 45.9036 16.7681C45.8723 16.7993 45.8567 16.8358 45.8567 16.88C45.8567 16.923 45.8723 16.9608 45.9036 16.992C45.9348 17.022 45.9713 17.0376 46.0155 17.0376C46.0598 17.0376 46.0963 17.022 46.1275 16.992C46.1588 16.9608 46.1744 16.923 46.1744 16.88C46.1744 16.8358 46.1588 16.7993 46.1275 16.7681C46.0963 16.7368 46.0598 16.7212 46.0155 16.7212Z" fill="white"/>
<path d="M44.4299 15.1396C44.3856 15.1396 44.3478 15.1553 44.3179 15.1865C44.2866 15.2165 44.271 15.2542 44.271 15.2972C44.271 15.3415 44.2866 15.3792 44.3179 15.4092C44.3478 15.4404 44.3856 15.4561 44.4299 15.4561C44.4728 15.4561 44.5106 15.4404 44.5418 15.4092C44.5731 15.3792 44.5874 15.3415 44.5874 15.2972C44.5874 15.2542 44.5731 15.2165 44.5418 15.1865C44.5106 15.1553 44.4728 15.1396 44.4299 15.1396Z" fill="white"/>
<path d="M43.6353 17.5132C43.5924 17.5132 43.5546 17.5288 43.5234 17.5588C43.4934 17.59 43.4778 17.6278 43.4778 17.6707C43.4778 17.715 43.4934 17.7515 43.5234 17.7827C43.5546 17.814 43.5924 17.8296 43.6353 17.8296C43.6796 17.8296 43.7174 17.814 43.7486 17.7827C43.7786 17.7515 43.7942 17.715 43.7942 17.6707C43.7942 17.6278 43.7786 17.59 43.7486 17.5588C43.7174 17.5288 43.6796 17.5132 43.6353 17.5132Z" fill="white"/>
<path d="M43.6353 15.9312C43.5924 15.9312 43.5546 15.9455 43.5234 15.9767C43.4934 16.008 43.4778 16.0457 43.4778 16.0887C43.4778 16.133 43.4934 16.1694 43.5234 16.2007C43.5546 16.2319 43.5924 16.2476 43.6353 16.2476C43.6796 16.2476 43.7174 16.2319 43.7486 16.2007C43.7786 16.1694 43.7942 16.133 43.7942 16.0887C43.7942 16.0457 43.7786 16.008 43.7486 15.9767C43.7174 15.9455 43.6796 15.9312 43.6353 15.9312Z" fill="white"/>
<path d="M45.2226 20.6763C45.1666 20.6776 45.1223 20.701 45.0898 20.7466C45.0585 20.7948 45.0546 20.8442 45.0755 20.8963C45.1028 20.9601 45.1523 20.9927 45.2213 20.9927C45.2916 20.9927 45.3411 20.9601 45.3684 20.8963C45.3763 20.8768 45.3815 20.856 45.3815 20.8351C45.3815 20.8026 45.3723 20.7739 45.3541 20.7466C45.3216 20.701 45.2786 20.6776 45.2226 20.6763Z" fill="white"/>
<path d="M45.2227 19.0952C45.1785 19.0952 45.1407 19.1108 45.1095 19.1408C45.0782 19.172 45.0613 19.2098 45.0613 19.2541C45.0613 19.2983 45.0769 19.3361 45.1082 19.3674C45.1394 19.3986 45.1772 19.4142 45.2214 19.4142C45.2657 19.4142 45.3035 19.3986 45.3347 19.366C45.366 19.3348 45.3816 19.297 45.3816 19.2541C45.3816 19.2098 45.366 19.172 45.3347 19.1421C45.3035 19.1108 45.267 19.0952 45.2227 19.0952Z" fill="white"/>
<path d="M44.4299 19.8877C44.3856 19.8877 44.3478 19.902 44.3179 19.9333C44.2866 19.9645 44.271 20.001 44.271 20.0452C44.271 20.0882 44.2866 20.126 44.3166 20.1572C44.3478 20.1885 44.3856 20.2028 44.4285 20.2041C44.4728 20.2041 44.5093 20.1885 44.5405 20.1585C44.5718 20.1273 44.5874 20.0895 44.5874 20.0465C44.5887 20.0023 44.5731 19.9645 44.5418 19.9333C44.5106 19.9033 44.4728 19.8877 44.4299 19.8877Z" fill="white"/>
<path d="M46.0155 19.8877C45.9713 19.8877 45.9348 19.902 45.9036 19.9333C45.8723 19.9645 45.8567 20.001 45.8567 20.0452C45.8567 20.0882 45.8723 20.126 45.9036 20.1572C45.9335 20.1885 45.9713 20.2028 46.0155 20.2041C46.0585 20.2041 46.0963 20.1885 46.1275 20.1585C46.1588 20.1273 46.1744 20.0895 46.1744 20.0465C46.1744 20.0023 46.1588 19.9645 46.1288 19.9333C46.0976 19.9033 46.0598 19.8877 46.0155 19.8877Z" fill="white"/>
<path d="M44.4299 18.3037C44.3856 18.3037 44.3478 18.3193 44.3179 18.3506C44.2866 18.3818 44.271 18.4183 44.271 18.4626C44.271 18.5055 44.2866 18.5433 44.3179 18.5745C44.3478 18.6058 44.3856 18.6201 44.4299 18.6201C44.4728 18.6201 44.5106 18.6058 44.5418 18.5745C44.5731 18.5433 44.5874 18.5055 44.5874 18.4626C44.5874 18.4183 44.5731 18.3818 44.5418 18.3506C44.5106 18.3193 44.4728 18.3037 44.4299 18.3037Z" fill="white"/>
<path d="M46.0155 18.3037C45.9713 18.3037 45.9348 18.3193 45.9036 18.3506C45.8723 18.3818 45.8567 18.4183 45.8567 18.4626C45.8567 18.5055 45.8723 18.5433 45.9036 18.5745C45.9348 18.6058 45.9713 18.6201 46.0155 18.6201C46.0598 18.6201 46.0963 18.6058 46.1275 18.5745C46.1588 18.5433 46.1744 18.5055 46.1744 18.4626C46.1744 18.4183 46.1588 18.3818 46.1275 18.3506C46.0963 18.3193 46.0598 18.3037 46.0155 18.3037Z" fill="white"/>
<path d="M43.6349 20.6763C43.579 20.6776 43.5347 20.701 43.5034 20.7466C43.4722 20.7948 43.467 20.8442 43.4891 20.8963C43.5165 20.9601 43.5646 20.9927 43.6349 20.9927C43.7053 20.9927 43.7534 20.9601 43.7808 20.8963C43.7899 20.8768 43.7938 20.856 43.7938 20.8351C43.7938 20.8026 43.7847 20.7739 43.7665 20.7466C43.7352 20.701 43.6922 20.6776 43.6349 20.6763Z" fill="white"/>
<path d="M43.6355 19.0952C43.5912 19.0952 43.5535 19.1108 43.5222 19.1408C43.491 19.172 43.4753 19.2098 43.4753 19.2541C43.4753 19.2983 43.491 19.3361 43.5222 19.3674C43.5535 19.3986 43.5912 19.4142 43.6355 19.4142C43.6798 19.4142 43.7175 19.3986 43.7488 19.366C43.78 19.3348 43.7957 19.297 43.7944 19.2541C43.7944 19.2098 43.7787 19.172 43.7488 19.1421C43.7175 19.1108 43.6798 19.0952 43.6355 19.0952Z" fill="white"/>
<path d="M44.4299 21.4697C44.3856 21.4697 44.3478 21.4854 44.3179 21.5153C44.2866 21.5465 44.271 21.5843 44.271 21.6273C44.271 21.6715 44.2866 21.708 44.3166 21.7393C44.3478 21.7705 44.3856 21.7861 44.4285 21.7861C44.4728 21.7861 44.5093 21.7705 44.5405 21.7406C44.5718 21.7093 44.5874 21.6729 44.5874 21.6286C44.5887 21.5843 44.5731 21.5479 44.5418 21.5166C44.5106 21.4854 44.4728 21.4697 44.4299 21.4697Z" fill="white"/>
<path d="M46.0155 21.4697C45.9713 21.4697 45.9348 21.4854 45.9036 21.5153C45.8723 21.5465 45.8567 21.5843 45.8567 21.6273C45.8567 21.6715 45.8723 21.708 45.9036 21.7393C45.9335 21.7705 45.9713 21.7861 46.0155 21.7861C46.0585 21.7861 46.0963 21.7705 46.1275 21.7406C46.1588 21.7093 46.1744 21.6729 46.1744 21.6286C46.1744 21.5843 46.1588 21.5479 46.1288 21.5166C46.0976 21.4854 46.0598 21.4697 46.0155 21.4697Z" fill="white"/>
<path d="M40.5503 8.0472C40.5243 8.02767 40.4943 8.01855 40.4631 8.01855C40.4409 8.01855 40.4201 8.02376 40.4006 8.03158C40.3719 8.04329 40.3485 8.06283 40.3302 8.08887C40.3133 8.11621 40.3042 8.14486 40.3042 8.17741C40.3042 8.19824 40.3081 8.21908 40.3159 8.23861C40.3328 8.27897 40.3615 8.30632 40.4006 8.32324C40.4201 8.33105 40.4409 8.33626 40.4631 8.33496C40.4943 8.33626 40.5243 8.32715 40.5503 8.30762C40.5776 8.29069 40.5959 8.26855 40.6076 8.23861C40.6167 8.21908 40.6219 8.19824 40.6206 8.17741C40.6219 8.14486 40.6128 8.11621 40.5933 8.08887C40.5828 8.07194 40.5685 8.05762 40.5503 8.0472Z" fill="white"/>
<path d="M42.0495 11.1841C42.0052 11.1841 41.9687 11.1997 41.9375 11.2297C41.9062 11.2609 41.8906 11.2987 41.8906 11.3416C41.8906 11.3859 41.9062 11.4237 41.9375 11.4536C41.9687 11.4849 42.0052 11.5005 42.0495 11.5005C42.0938 11.5005 42.1302 11.4849 42.1615 11.4536C42.1927 11.4237 42.2083 11.3859 42.2083 11.3416C42.2083 11.2987 42.1927 11.2609 42.1615 11.2297C42.1302 11.1997 42.0938 11.1841 42.0495 11.1841Z" fill="white"/>
<path d="M42.0495 9.60205C42.0052 9.60205 41.9687 9.61768 41.9375 9.64762C41.9062 9.67887 41.8906 9.71663 41.8906 9.7596C41.8906 9.80387 41.9062 9.84033 41.9375 9.87158C41.9687 9.90283 42.0052 9.91846 42.0495 9.91846C42.0938 9.91846 42.1302 9.90283 42.1615 9.87158C42.1927 9.84033 42.2083 9.80387 42.2083 9.7596C42.2083 9.71663 42.1927 9.67887 42.1615 9.64762C42.1302 9.61768 42.0938 9.60205 42.0495 9.60205Z" fill="white"/>
<path d="M41.2564 10.3931C41.2122 10.3944 41.1757 10.41 41.1444 10.4412C41.1145 10.4725 41.0989 10.509 41.1002 10.5532C41.1002 10.5962 41.1158 10.634 41.147 10.6639C41.1783 10.6951 41.2161 10.7095 41.259 10.7095C41.3033 10.7095 41.3398 10.6938 41.371 10.6639C41.4023 10.6326 41.4166 10.5949 41.4166 10.5519C41.4166 10.5076 41.401 10.4699 41.3697 10.4386C41.3385 10.4074 41.3007 10.3931 41.2564 10.3931Z" fill="white"/>
<path d="M41.2564 8.80908C41.2122 8.81038 41.1757 8.82601 41.1457 8.85726C41.1145 8.88851 41.0989 8.92497 41.1002 8.96924C41.1002 9.01221 41.1158 9.04867 41.147 9.07992C41.177 9.10986 41.2148 9.12549 41.259 9.12549C41.302 9.12549 41.3398 9.10986 41.3697 9.07992C41.401 9.04867 41.4166 9.01221 41.4166 8.96924C41.4179 8.92497 41.4023 8.8859 41.3697 8.85465C41.3385 8.8234 41.3007 8.80908 41.2564 8.80908Z" fill="white"/>
<path d="M40.5503 11.2114C40.5243 11.1932 40.4943 11.1841 40.4631 11.1841C40.4409 11.1841 40.4201 11.188 40.4006 11.1971C40.3368 11.2244 40.3042 11.2726 40.3042 11.3429C40.3042 11.4119 40.3368 11.4614 40.4006 11.4888C40.4201 11.4966 40.4409 11.5005 40.4631 11.5005C40.4943 11.5005 40.5243 11.4914 40.5503 11.4744C40.5724 11.4588 40.5894 11.4406 40.6024 11.4172C40.6141 11.3937 40.6206 11.369 40.6206 11.3429C40.6206 11.3169 40.6141 11.2922 40.6024 11.2687C40.5894 11.2453 40.5724 11.2257 40.5503 11.2114Z" fill="white"/>
<path d="M40.5503 9.62939C40.5243 9.61117 40.4943 9.60205 40.4631 9.60205C40.4409 9.60205 40.4201 9.60596 40.4006 9.61507C40.3368 9.64242 40.3042 9.69059 40.3042 9.7609C40.3042 9.82992 40.3368 9.87809 40.4006 9.90544C40.4201 9.91455 40.4409 9.91846 40.4631 9.91846C40.4943 9.91846 40.5243 9.90934 40.5503 9.89111C40.5985 9.85986 40.6219 9.81689 40.6206 9.7596C40.6219 9.70361 40.5985 9.65934 40.5503 9.62939Z" fill="white"/>
<path d="M42.0494 14.3481C42.0234 14.3481 41.9987 14.3547 41.9752 14.3677C41.9518 14.3807 41.9323 14.3976 41.9179 14.4198C41.9036 14.4419 41.8945 14.4653 41.8919 14.4927C41.8893 14.5187 41.8932 14.5435 41.9036 14.5682C41.931 14.632 41.9791 14.6646 42.0494 14.6646C42.1185 14.6646 42.1679 14.632 42.1953 14.5682C42.2044 14.5487 42.2083 14.5278 42.2083 14.507C42.2083 14.4744 42.1992 14.4458 42.181 14.4185C42.1497 14.3729 42.1054 14.3494 42.0494 14.3481Z" fill="white"/>
<path d="M42.0495 12.7646C42.0052 12.7646 41.9687 12.7803 41.9375 12.8115C41.9062 12.8428 41.8906 12.8792 41.8906 12.9235C41.8906 12.9665 41.9062 13.0042 41.9375 13.0355C41.9687 13.0654 42.0052 13.0811 42.0495 13.0811C42.0938 13.0811 42.1302 13.0654 42.1615 13.0355C42.1927 13.0042 42.2083 12.9665 42.2083 12.9235C42.2083 12.8792 42.1927 12.8428 42.1615 12.8115C42.1302 12.7803 42.0938 12.7646 42.0495 12.7646Z" fill="white"/>
<path d="M41.2565 13.5576C41.2122 13.5576 41.1745 13.5732 41.1445 13.6032C41.1133 13.6344 41.0977 13.6722 41.0977 13.7152C41.0977 13.7594 41.1133 13.7959 41.1445 13.8271C41.1745 13.8584 41.2122 13.874 41.2565 13.874C41.3008 13.874 41.3372 13.8584 41.3685 13.8271C41.3997 13.7959 41.4154 13.7594 41.4154 13.7152C41.4154 13.6722 41.3997 13.6344 41.3685 13.6032C41.3372 13.5732 41.2995 13.5576 41.2565 13.5576Z" fill="white"/>
<path d="M42.8429 13.5576C42.8 13.5576 42.7622 13.5732 42.731 13.6032C42.6997 13.6344 42.6841 13.6722 42.6841 13.7152C42.6841 13.7594 42.6997 13.7959 42.731 13.8271C42.7622 13.8584 42.8 13.874 42.8429 13.874C42.8872 13.874 42.925 13.8584 42.9549 13.8271C42.9862 13.7959 43.0018 13.7594 43.0018 13.7152C43.0018 13.6722 42.9862 13.6344 42.9549 13.6032C42.925 13.5732 42.8872 13.5576 42.8429 13.5576Z" fill="white"/>
<path d="M41.2565 11.9751C41.2122 11.9751 41.1745 11.9907 41.1445 12.022C41.1133 12.0532 41.0977 12.0897 41.0977 12.134C41.0977 12.1782 41.1133 12.2147 41.1445 12.2459C41.1745 12.2772 41.2122 12.2928 41.2565 12.2928C41.3008 12.2928 41.3372 12.2772 41.3685 12.2459C41.3997 12.2147 41.4154 12.1782 41.4154 12.134C41.4154 12.0897 41.3997 12.0532 41.3685 12.022C41.3372 11.9907 41.2995 11.9751 41.2565 11.9751Z" fill="white"/>
<path d="M42.8429 11.9751C42.8 11.9751 42.7622 11.9907 42.731 12.022C42.6997 12.0532 42.6841 12.0897 42.6841 12.134C42.6841 12.1782 42.6997 12.2147 42.731 12.2459C42.7622 12.2772 42.8 12.2928 42.8429 12.2928C42.8872 12.2928 42.925 12.2772 42.9549 12.2459C42.9862 12.2147 43.0018 12.1782 43.0018 12.134C43.0018 12.0897 42.9862 12.0532 42.9549 12.022C42.925 11.9907 42.8872 11.9751 42.8429 11.9751Z" fill="white"/>
<path d="M40.5503 14.3755C40.5243 14.3573 40.4943 14.3481 40.4631 14.3481C40.4409 14.3481 40.4201 14.3534 40.4006 14.3612C40.3719 14.3742 40.3485 14.3924 40.3302 14.4185C40.3133 14.4458 40.3042 14.4744 40.3042 14.507C40.3042 14.5278 40.3081 14.5487 40.3159 14.5682C40.3328 14.6086 40.3615 14.6359 40.4006 14.6528C40.4201 14.6606 40.4409 14.6646 40.4631 14.6646C40.4943 14.6646 40.5243 14.6567 40.5503 14.6385C40.5776 14.6216 40.5959 14.5981 40.6076 14.5682C40.6167 14.5487 40.6219 14.5278 40.6206 14.507C40.6219 14.4744 40.6128 14.4458 40.5933 14.4185C40.5828 14.4015 40.5685 14.3872 40.5503 14.3755Z" fill="white"/>
<path d="M40.5503 12.7935C40.5243 12.7752 40.4943 12.7661 40.4631 12.7661C40.4409 12.7661 40.4201 12.77 40.4006 12.7791C40.3368 12.8065 40.3042 12.8547 40.3042 12.925C40.3042 12.9953 40.3368 13.0435 40.4006 13.0708C40.4201 13.0786 40.4409 13.0825 40.4631 13.0825C40.4943 13.0825 40.5243 13.0734 40.5503 13.0565C40.5724 13.0422 40.5894 13.0226 40.6024 12.9992C40.6141 12.9757 40.6206 12.951 40.6206 12.925C40.6206 12.8989 40.6141 12.8742 40.6024 12.8507C40.5894 12.8273 40.5724 12.8078 40.5503 12.7935Z" fill="white"/>
<path d="M42.0495 17.5132C42.0052 17.5132 41.9687 17.5288 41.9375 17.5588C41.9062 17.59 41.8906 17.6278 41.8906 17.6707C41.8906 17.715 41.9062 17.7515 41.9375 17.7827C41.9687 17.814 42.0052 17.8296 42.0495 17.8296C42.0938 17.8296 42.1302 17.814 42.1615 17.7827C42.1927 17.7515 42.2083 17.715 42.2083 17.6707C42.2083 17.6278 42.1927 17.59 42.1615 17.5588C42.1302 17.5288 42.0938 17.5132 42.0495 17.5132Z" fill="white"/>
<path d="M42.0495 15.9312C42.0052 15.9312 41.9687 15.9455 41.9375 15.9767C41.9062 16.008 41.8906 16.0457 41.8906 16.0887C41.8906 16.133 41.9062 16.1694 41.9375 16.2007C41.9687 16.2319 42.0052 16.2476 42.0495 16.2476C42.0938 16.2476 42.1302 16.2319 42.1615 16.2007C42.1927 16.1694 42.2083 16.133 42.2083 16.0887C42.2083 16.0457 42.1927 16.008 42.1615 15.9767C42.1302 15.9455 42.0938 15.9312 42.0495 15.9312Z" fill="white"/>
<path d="M41.2565 16.7212C41.2122 16.7212 41.1745 16.7368 41.1445 16.7681C41.1133 16.7993 41.0977 16.8358 41.0977 16.88C41.0977 16.923 41.1133 16.9608 41.1445 16.992C41.1745 17.022 41.2122 17.0376 41.2565 17.0376C41.3008 17.0376 41.3372 17.022 41.3685 16.992C41.3997 16.9608 41.4154 16.923 41.4154 16.88C41.4154 16.8358 41.3997 16.7993 41.3685 16.7681C41.3372 16.7368 41.2995 16.7212 41.2565 16.7212Z" fill="white"/>
<path d="M42.8429 16.7212C42.8 16.7212 42.7622 16.7368 42.731 16.7681C42.6997 16.7993 42.6841 16.8358 42.6841 16.88C42.6841 16.923 42.6997 16.9608 42.731 16.992C42.7622 17.022 42.8 17.0376 42.8429 17.0376C42.8872 17.0376 42.925 17.022 42.9549 16.992C42.9862 16.9608 43.0018 16.923 43.0018 16.88C43.0018 16.8358 42.9862 16.7993 42.9549 16.7681C42.925 16.7368 42.8872 16.7212 42.8429 16.7212Z" fill="white"/>
<path d="M41.2565 15.1396C41.2122 15.1396 41.1745 15.1553 41.1445 15.1865C41.1133 15.2165 41.0977 15.2542 41.0977 15.2972C41.0977 15.3415 41.1133 15.3792 41.1445 15.4092C41.1745 15.4404 41.2122 15.4561 41.2565 15.4561C41.3008 15.4561 41.3372 15.4404 41.3685 15.4092C41.3997 15.3792 41.4154 15.3415 41.4154 15.2972C41.4154 15.2542 41.3997 15.2165 41.3685 15.1865C41.3372 15.1553 41.2995 15.1396 41.2565 15.1396Z" fill="white"/>
<path d="M42.8429 15.1396C42.8 15.1396 42.7622 15.1553 42.731 15.1865C42.6997 15.2165 42.6841 15.2542 42.6841 15.2972C42.6841 15.3415 42.6997 15.3792 42.731 15.4092C42.7622 15.4404 42.8 15.4561 42.8429 15.4561C42.8872 15.4561 42.925 15.4404 42.9549 15.4092C42.9862 15.3792 43.0018 15.3415 43.0018 15.2972C43.0018 15.2542 42.9862 15.2165 42.9549 15.1865C42.925 15.1553 42.8872 15.1396 42.8429 15.1396Z" fill="white"/>
<path d="M40.5503 17.5405C40.5243 17.5223 40.4943 17.5132 40.4631 17.5132C40.4409 17.5132 40.4201 17.5171 40.4006 17.5262C40.3368 17.5535 40.3042 17.6017 40.3042 17.672C40.3042 17.741 40.3368 17.7905 40.4006 17.8179C40.4201 17.8257 40.4409 17.8296 40.4631 17.8296C40.4943 17.8296 40.5243 17.8205 40.5503 17.8035C40.5724 17.7879 40.5894 17.7697 40.6024 17.7463C40.6141 17.7228 40.6206 17.6981 40.6206 17.672C40.6206 17.6447 40.6141 17.62 40.6024 17.5978C40.5894 17.5744 40.5724 17.5549 40.5503 17.5405Z" fill="white"/>
<path d="M40.5503 15.9587C40.5243 15.9392 40.4943 15.93 40.4631 15.9314C40.4409 15.93 40.4201 15.9353 40.4006 15.9444C40.3368 15.9717 40.3042 16.0199 40.3042 16.0889C40.3042 16.1592 40.3368 16.2074 40.4006 16.2347C40.4201 16.2439 40.4409 16.2478 40.4631 16.2478C40.4943 16.2478 40.5243 16.2386 40.5503 16.2204C40.5724 16.2061 40.5894 16.1866 40.6024 16.1644C40.6141 16.141 40.6206 16.1162 40.6206 16.0889C40.6206 16.0629 40.6141 16.0381 40.6024 16.0147C40.5894 15.9912 40.5724 15.973 40.5503 15.9587Z" fill="white"/>
<path d="M42.05 20.6763C41.994 20.6776 41.9497 20.701 41.9185 20.7466C41.8872 20.7948 41.882 20.8442 41.9042 20.8963C41.9315 20.9601 41.9797 20.9927 42.05 20.9927C42.119 20.9927 42.1685 20.9601 42.1958 20.8963C42.2049 20.8768 42.2088 20.856 42.2088 20.8351C42.2088 20.8026 42.1997 20.7739 42.1815 20.7466C42.1502 20.701 42.106 20.6776 42.05 20.6763Z" fill="white"/>
<path d="M42.0496 19.0952C42.0054 19.0952 41.9676 19.1108 41.9364 19.1408C41.9051 19.172 41.8895 19.2098 41.8895 19.2541C41.8882 19.2983 41.9038 19.3361 41.9351 19.3674C41.9663 19.3986 42.0054 19.4142 42.0483 19.4142C42.0926 19.4142 42.1304 19.3986 42.1616 19.366C42.1929 19.3348 42.2085 19.297 42.2085 19.2541C42.2085 19.2098 42.1929 19.172 42.1616 19.1421C42.1304 19.1108 42.0939 19.0952 42.0496 19.0952Z" fill="white"/>
<path d="M41.2565 19.8877C41.2122 19.8877 41.1758 19.902 41.1445 19.9333C41.1133 19.9645 41.0977 20.001 41.0977 20.0452C41.0977 20.0882 41.1133 20.126 41.1432 20.1572C41.1745 20.1885 41.2122 20.2028 41.2552 20.2041C41.2995 20.2041 41.3372 20.1885 41.3685 20.1585C41.3984 20.1273 41.4141 20.0895 41.4154 20.0465C41.4154 20.0023 41.3997 19.9645 41.3685 19.9333C41.3372 19.9033 41.3008 19.8877 41.2565 19.8877Z" fill="white"/>
<path d="M42.8429 19.8877C42.8 19.8877 42.7622 19.902 42.731 19.9333C42.6997 19.9645 42.6841 20.001 42.6841 20.0452C42.6841 20.0882 42.6997 20.126 42.731 20.1572C42.7609 20.1885 42.7987 20.2028 42.8429 20.2041C42.8859 20.2041 42.9237 20.1885 42.9549 20.1585C42.9862 20.1273 43.0018 20.0895 43.0018 20.0465C43.0018 20.0023 42.9875 19.9645 42.9562 19.9333C42.925 19.9033 42.8872 19.8877 42.8429 19.8877Z" fill="white"/>
<path d="M41.2565 18.3037C41.2122 18.3037 41.1745 18.3193 41.1445 18.3506C41.1133 18.3818 41.0977 18.4183 41.0977 18.4626C41.0977 18.5055 41.1133 18.5433 41.1445 18.5745C41.1745 18.6058 41.2122 18.6201 41.2565 18.6201C41.3008 18.6201 41.3372 18.6058 41.3685 18.5745C41.3997 18.5433 41.4154 18.5055 41.4154 18.4626C41.4154 18.4183 41.3997 18.3818 41.3685 18.3506C41.3372 18.3193 41.2995 18.3037 41.2565 18.3037Z" fill="white"/>
<path d="M42.8429 18.3037C42.8 18.3037 42.7622 18.3193 42.731 18.3506C42.6997 18.3818 42.6841 18.4183 42.6841 18.4626C42.6841 18.5055 42.6997 18.5433 42.731 18.5745C42.7622 18.6058 42.8 18.6201 42.8429 18.6201C42.8872 18.6201 42.925 18.6058 42.9549 18.5745C42.9862 18.5433 43.0018 18.5055 43.0018 18.4626C43.0018 18.4183 42.9862 18.3818 42.9549 18.3506C42.925 18.3193 42.8872 18.3037 42.8429 18.3037Z" fill="white"/>
<path d="M40.5509 20.7046C40.5249 20.6877 40.4949 20.6772 40.4637 20.6772C40.4363 20.6772 40.4116 20.6838 40.3881 20.6968C40.3647 20.7098 40.3465 20.7267 40.3309 20.7489C40.3165 20.771 40.3087 20.7944 40.3061 20.8205C40.3035 20.8478 40.3061 20.8726 40.3165 20.8973C40.3335 20.9364 40.3621 20.965 40.4012 20.9819C40.4207 20.9897 40.4415 20.9937 40.4637 20.9937C40.4949 20.9937 40.5249 20.9858 40.5509 20.9676C40.5783 20.9494 40.5965 20.9259 40.6082 20.8973C40.6173 20.8778 40.6225 20.8569 40.6212 20.8361C40.6225 20.8035 40.6121 20.7749 40.5939 20.7476C40.5835 20.7306 40.5691 20.7163 40.5509 20.7046Z" fill="white"/>
<path d="M40.5503 19.1226C40.5243 19.1043 40.4943 19.0952 40.4631 19.0952C40.4409 19.0952 40.4201 19.0991 40.4006 19.1082C40.3368 19.1356 40.3042 19.1838 40.3042 19.2541C40.3042 19.3231 40.3368 19.3726 40.4006 19.3999C40.4201 19.4077 40.4409 19.4129 40.4631 19.4129C40.4943 19.4129 40.5243 19.4038 40.5503 19.3856C40.5724 19.37 40.5894 19.3517 40.6024 19.3283C40.6141 19.3049 40.6206 19.2801 40.6206 19.2541C40.6206 19.228 40.6141 19.2033 40.6024 19.1799C40.5894 19.1564 40.5724 19.1369 40.5503 19.1226Z" fill="white"/>
<path d="M41.2565 21.4697C41.2122 21.4697 41.1758 21.4854 41.1445 21.5153C41.1133 21.5465 41.0977 21.5843 41.0977 21.6273C41.0977 21.6715 41.1133 21.708 41.1432 21.7393C41.1745 21.7705 41.2122 21.7861 41.2552 21.7861C41.2995 21.7861 41.3372 21.7705 41.3685 21.7406C41.3984 21.7093 41.4141 21.6729 41.4154 21.6286C41.4154 21.5843 41.3997 21.5479 41.3685 21.5166C41.3372 21.4854 41.3008 21.4697 41.2565 21.4697Z" fill="white"/>
<path d="M42.8429 21.4697C42.8 21.4697 42.7622 21.4854 42.731 21.5153C42.6997 21.5465 42.6841 21.5843 42.6841 21.6273C42.6841 21.6715 42.6997 21.708 42.731 21.7393C42.7609 21.7705 42.7987 21.7861 42.8429 21.7861C42.8859 21.7861 42.9237 21.7705 42.9549 21.7406C42.9862 21.7093 43.0018 21.6729 43.0018 21.6286C43.0018 21.5843 42.9875 21.5479 42.9562 21.5166C42.925 21.4854 42.8872 21.4697 42.8429 21.4697Z" fill="white"/>
<path d="M37.3788 1.7179C37.3514 1.69836 37.3228 1.68925 37.2902 1.69055C37.2342 1.68925 37.19 1.71269 37.1574 1.75956C37.1262 1.80644 37.1223 1.85722 37.1431 1.9093C37.1704 1.97441 37.2199 2.00696 37.2902 2.00696C37.3228 2.00696 37.3514 1.99784 37.3788 1.97961C37.4048 1.96138 37.4243 1.93925 37.4361 1.9093C37.4439 1.88977 37.4491 1.87024 37.4491 1.8481C37.4491 1.81555 37.44 1.7856 37.4217 1.75956C37.41 1.74263 37.3957 1.72831 37.3788 1.7179Z" fill="white"/>
<path d="M38.8761 4.85352C38.8332 4.85352 38.7954 4.86914 38.7642 4.90039C38.7329 4.93034 38.7173 4.9681 38.7173 5.01237C38.7173 5.05534 38.7329 5.0931 38.7642 5.12435C38.7954 5.1543 38.8332 5.16992 38.8761 5.16992C38.9204 5.16992 38.9582 5.1543 38.9881 5.12435C39.0194 5.0931 39.035 5.05534 39.035 5.01237C39.035 4.9681 39.0194 4.93034 38.9881 4.90039C38.9582 4.86914 38.9204 4.85352 38.8761 4.85352Z" fill="white"/>
<path d="M38.0834 4.06299C38.0391 4.06299 38.0027 4.07861 37.9714 4.10986C37.9402 4.14111 37.9246 4.17757 37.9246 4.22184C37.9246 4.26481 37.9402 4.30257 37.9714 4.33382C38.0027 4.36507 38.0391 4.37939 38.0834 4.37939C38.1277 4.37939 38.1641 4.36507 38.1954 4.33382C38.2266 4.30257 38.2423 4.26481 38.2423 4.22184C38.2423 4.17757 38.2266 4.14111 38.1954 4.10986C38.1654 4.07861 38.1277 4.06299 38.0834 4.06299Z" fill="white"/>
<path d="M37.379 4.88184C37.3516 4.86361 37.323 4.85449 37.2904 4.85449C37.2462 4.85449 37.2084 4.87012 37.1785 4.90137C37.1472 4.93132 37.1316 4.96908 37.1316 5.01335C37.1316 5.05632 37.1472 5.09408 37.1785 5.12402C37.2084 5.15527 37.2462 5.1709 37.2904 5.1709C37.323 5.1709 37.3516 5.16178 37.379 5.14355C37.3998 5.12923 37.4181 5.1097 37.4298 5.08626C37.4428 5.06413 37.448 5.03939 37.448 5.01335C37.448 4.986 37.4428 4.96126 37.4298 4.93913C37.4181 4.91569 37.3998 4.89616 37.379 4.88184Z" fill="white"/>
<path d="M37.3789 3.2998C37.3516 3.28158 37.3229 3.27246 37.2904 3.27246C37.2461 3.27246 37.2096 3.28809 37.1784 3.31934C37.1484 3.35059 37.1328 3.38835 37.1341 3.43132C37.1341 3.47559 37.1497 3.51204 37.181 3.54329C37.2122 3.57324 37.25 3.58887 37.293 3.58887C37.3372 3.58887 37.3737 3.57324 37.4049 3.54199C37.4362 3.51074 37.4505 3.47428 37.4505 3.43001C37.4505 3.37402 37.4258 3.32975 37.3789 3.2998Z" fill="white"/>
<path d="M38.8761 8.01855C38.8201 8.01855 38.7759 8.04199 38.7446 8.08887C38.7264 8.11621 38.7173 8.14486 38.7173 8.17741C38.7173 8.19824 38.7212 8.21908 38.7303 8.23861C38.7576 8.30241 38.8071 8.33496 38.8761 8.33496C38.9465 8.33496 38.9946 8.30241 39.0233 8.23861C39.0311 8.21908 39.035 8.19824 39.035 8.17741C39.035 8.14486 39.0259 8.11621 39.0076 8.08887C38.9764 8.04329 38.9321 8.01986 38.8761 8.01855Z" fill="white"/>
<path d="M38.8761 6.43652C38.8332 6.43652 38.7954 6.45215 38.7642 6.4834C38.7329 6.51465 38.7173 6.55111 38.7173 6.59538C38.7173 6.63835 38.7329 6.67611 38.7642 6.70736C38.7954 6.7373 38.8332 6.75293 38.8761 6.75293C38.9204 6.75293 38.9582 6.7373 38.9881 6.70736C39.0194 6.67611 39.035 6.63835 39.035 6.59538C39.035 6.55111 39.0194 6.51465 38.9881 6.4834C38.9582 6.45215 38.9204 6.43652 38.8761 6.43652Z" fill="white"/>
<path d="M38.0834 7.229C38.0391 7.229 38.0027 7.24463 37.9714 7.27458C37.9402 7.30583 37.9246 7.34359 37.9246 7.38656C37.9246 7.43083 37.9402 7.46859 37.9714 7.49854C38.0027 7.52979 38.0391 7.54541 38.0834 7.54541C38.1277 7.54541 38.1641 7.52979 38.1954 7.49854C38.2266 7.46859 38.2423 7.43083 38.2423 7.38656C38.2423 7.34359 38.2266 7.30583 38.1954 7.27458C38.1641 7.24463 38.1277 7.229 38.0834 7.229Z" fill="white"/>
<path d="M39.6693 7.229C39.6263 7.229 39.5885 7.24463 39.5573 7.27458C39.5273 7.30583 39.5117 7.34359 39.5117 7.38656C39.5117 7.43083 39.5273 7.46859 39.5573 7.49854C39.5885 7.52979 39.6263 7.54541 39.6693 7.54541C39.7135 7.54541 39.7513 7.52979 39.7826 7.49854C39.8125 7.46859 39.8281 7.43083 39.8281 7.38656C39.8281 7.34359 39.8125 7.30583 39.7826 7.27458C39.7513 7.24463 39.7135 7.229 39.6693 7.229Z" fill="white"/>
<path d="M38.0834 5.64558C38.0391 5.64558 38.0027 5.65991 37.9714 5.69116C37.9402 5.72241 37.9246 5.76017 37.9246 5.80314C37.9246 5.84741 37.9402 5.88386 37.9714 5.91511C38.0027 5.94636 38.0391 5.96199 38.0834 5.96199C38.1277 5.96199 38.1641 5.94636 38.1954 5.91511C38.2266 5.88386 38.2423 5.84741 38.2423 5.80314C38.2423 5.75886 38.2266 5.72241 38.1954 5.69116C38.1654 5.65991 38.1277 5.64428 38.0834 5.64558Z" fill="white"/>
<path d="M39.6693 5.64558C39.6263 5.64558 39.5885 5.65991 39.5573 5.69116C39.5273 5.72241 39.5117 5.76017 39.5117 5.80314C39.5117 5.84741 39.5273 5.88386 39.5573 5.91511C39.5885 5.94636 39.6263 5.96199 39.6693 5.96199C39.7135 5.96199 39.7513 5.94636 39.7826 5.91511C39.8125 5.88386 39.8281 5.84741 39.8281 5.80314C39.8294 5.75886 39.8138 5.72241 39.7826 5.69116C39.7513 5.65991 39.7135 5.64428 39.6693 5.64558Z" fill="white"/>
<path d="M37.379 8.0472C37.3516 8.02767 37.323 8.01855 37.2904 8.01855C37.2332 8.01855 37.1889 8.04199 37.1576 8.08887C37.1407 8.11621 37.1316 8.14486 37.1316 8.17741C37.1316 8.19824 37.1355 8.21908 37.1433 8.23861C37.1707 8.30371 37.2201 8.33626 37.2904 8.33496C37.323 8.33626 37.3516 8.32715 37.379 8.30762C37.405 8.29069 37.4246 8.26855 37.4363 8.23861C37.4441 8.21908 37.4493 8.19824 37.4493 8.17741C37.4493 8.14486 37.4402 8.11621 37.422 8.08887C37.4102 8.07194 37.3959 8.05762 37.379 8.0472Z" fill="white"/>
<path d="M37.3789 6.46387C37.3516 6.44564 37.3229 6.43652 37.2904 6.43652C37.2461 6.43783 37.2096 6.45345 37.1784 6.4847C37.1484 6.51595 37.1328 6.55241 37.1341 6.59668C37.1341 6.63965 37.1497 6.67741 37.181 6.70736C37.2122 6.73861 37.25 6.75293 37.293 6.75293C37.3372 6.75293 37.3737 6.7373 37.4049 6.70605C37.4362 6.67611 37.4505 6.63835 37.4505 6.59538C37.4505 6.53809 37.4258 6.49512 37.3789 6.46387Z" fill="white"/>
<path d="M38.8761 11.1841C38.8332 11.1841 38.7954 11.1997 38.7642 11.2297C38.7329 11.2609 38.7173 11.2987 38.7173 11.3416C38.7173 11.3859 38.7329 11.4237 38.7642 11.4536C38.7954 11.4849 38.8332 11.5005 38.8761 11.5005C38.9204 11.5005 38.9582 11.4849 38.9881 11.4536C39.0194 11.4237 39.035 11.3859 39.035 11.3416C39.035 11.2987 39.0194 11.2609 38.9881 11.2297C38.9582 11.1997 38.9204 11.1841 38.8761 11.1841Z" fill="white"/>
<path d="M38.8761 9.60205C38.8332 9.60205 38.7954 9.61768 38.7642 9.64762C38.7329 9.67887 38.7173 9.71663 38.7173 9.7596C38.7173 9.80387 38.7329 9.84033 38.7642 9.87158C38.7954 9.90283 38.8332 9.91846 38.8761 9.91846C38.9204 9.91846 38.9582 9.90283 38.9881 9.87158C39.0194 9.84033 39.035 9.80387 39.035 9.7596C39.035 9.71663 39.0194 9.67887 38.9881 9.64762C38.9582 9.61768 38.9204 9.60205 38.8761 9.60205Z" fill="white"/>
<path d="M38.0834 10.3931C38.0391 10.3931 38.0027 10.4087 37.9714 10.4399C37.9402 10.4712 37.9246 10.5076 37.9246 10.5519C37.9246 10.5949 37.9402 10.6326 37.9714 10.6639C38.0027 10.6938 38.0391 10.7095 38.0834 10.7095C38.1277 10.7095 38.1641 10.6938 38.1954 10.6639C38.2266 10.6326 38.2423 10.5949 38.2423 10.5519C38.2423 10.5076 38.2266 10.4712 38.1954 10.4399C38.1641 10.4087 38.1277 10.3931 38.0834 10.3931Z" fill="white"/>
<path d="M39.6693 10.3931C39.6263 10.3931 39.5885 10.4087 39.5573 10.4399C39.5273 10.4712 39.5117 10.5076 39.5117 10.5519C39.5117 10.5949 39.5273 10.6326 39.5573 10.6639C39.5885 10.6938 39.6263 10.7095 39.6693 10.7095C39.7135 10.7095 39.7513 10.6938 39.7826 10.6639C39.8125 10.6326 39.8281 10.5949 39.8281 10.5519C39.8281 10.5076 39.8125 10.4712 39.7826 10.4399C39.7513 10.4087 39.7135 10.3931 39.6693 10.3931Z" fill="white"/>
<path d="M38.0834 8.80908C38.0391 8.80908 38.0027 8.82471 37.9714 8.85596C37.9402 8.88721 37.9246 8.92367 37.9246 8.96794C37.9246 9.0109 37.9402 9.04867 37.9714 9.07992C38.0027 9.10986 38.0391 9.12549 38.0834 9.12549C38.1277 9.12549 38.1641 9.10986 38.1954 9.07992C38.2266 9.04867 38.2423 9.0109 38.2423 8.96794C38.2423 8.92367 38.2266 8.88721 38.1954 8.85596C38.1641 8.82471 38.1277 8.80908 38.0834 8.80908Z" fill="white"/>
<path d="M39.6693 8.80908C39.6263 8.80908 39.5885 8.82471 39.5573 8.85596C39.5273 8.88721 39.5117 8.92367 39.5117 8.96794C39.5117 9.0109 39.5273 9.04867 39.5573 9.07992C39.5885 9.10986 39.6263 9.12549 39.6693 9.12549C39.7135 9.12549 39.7513 9.10986 39.7826 9.07992C39.8125 9.04867 39.8281 9.0109 39.8281 8.96794C39.8281 8.92367 39.8125 8.88721 39.7826 8.85596C39.7513 8.82471 39.7135 8.80908 39.6693 8.80908Z" fill="white"/>
<path d="M37.3792 11.2114C37.3519 11.1932 37.3232 11.1841 37.2907 11.1841C37.2647 11.1841 37.2399 11.1893 37.2165 11.201C37.193 11.2127 37.1748 11.2284 37.1592 11.2492C37.1436 11.27 37.1344 11.2935 37.1292 11.3195C37.1253 11.3442 37.1279 11.3703 37.1357 11.395C37.1436 11.4185 37.1566 11.4406 37.1761 11.4588C37.1943 11.4771 37.2165 11.4901 37.2412 11.4979C37.266 11.5057 37.2907 11.507 37.3167 11.5018C37.3415 11.4979 37.3649 11.4875 37.3857 11.4718C37.4066 11.4562 37.4222 11.4367 37.4339 11.4146C37.4443 11.3911 37.4495 11.3664 37.4495 11.3403C37.4482 11.3143 37.4417 11.2896 37.43 11.2674C37.417 11.244 37.4001 11.2257 37.3792 11.2114Z" fill="white"/>
<path d="M37.3789 9.62939C37.3516 9.61117 37.3229 9.60205 37.2904 9.60205C37.2461 9.60205 37.2096 9.61768 37.1784 9.64893C37.1484 9.68018 37.1328 9.71794 37.1341 9.7609C37.1341 9.80518 37.1497 9.84163 37.181 9.87288C37.2122 9.90283 37.25 9.91846 37.293 9.91846C37.3372 9.91846 37.3737 9.90283 37.4049 9.87158C37.4362 9.84033 37.4505 9.80387 37.4505 9.7596C37.4505 9.70361 37.4258 9.65934 37.3789 9.62939Z" fill="white"/>
<path d="M38.8764 14.3481C38.8503 14.3481 38.8256 14.3547 38.8021 14.3677C38.7787 14.3807 38.7592 14.3976 38.7448 14.4198C38.7305 14.4419 38.7214 14.4653 38.7188 14.4927C38.7162 14.5187 38.7201 14.5435 38.7305 14.5682C38.7579 14.632 38.8073 14.6646 38.8764 14.6646C38.9467 14.6646 38.9948 14.632 39.0235 14.5682C39.0313 14.5487 39.0352 14.5278 39.0352 14.507C39.0352 14.4744 39.0261 14.4458 39.0079 14.4185C38.9766 14.3729 38.9323 14.3494 38.8764 14.3481Z" fill="white"/>
<path d="M38.8761 12.7646C38.8332 12.7646 38.7954 12.7803 38.7642 12.8115C38.7329 12.8428 38.7173 12.8792 38.7173 12.9235C38.7173 12.9665 38.7329 13.0042 38.7642 13.0355C38.7954 13.0654 38.8332 13.0811 38.8761 13.0811C38.9204 13.0811 38.9582 13.0654 38.9881 13.0355C39.0194 13.0042 39.035 12.9665 39.035 12.9235C39.035 12.8792 39.0194 12.8428 38.9881 12.8115C38.9582 12.7803 38.9204 12.7646 38.8761 12.7646Z" fill="white"/>
<path d="M38.0834 13.5576C38.0391 13.5576 38.0027 13.5732 37.9714 13.6032C37.9402 13.6344 37.9246 13.6722 37.9246 13.7152C37.9246 13.7594 37.9402 13.7959 37.9714 13.8271C38.0027 13.8584 38.0391 13.874 38.0834 13.874C38.1277 13.874 38.1641 13.8584 38.1954 13.8271C38.2266 13.7959 38.2423 13.7594 38.2423 13.7152C38.2423 13.6722 38.2266 13.6344 38.1954 13.6032C38.1641 13.5732 38.1277 13.5576 38.0834 13.5576Z" fill="white"/>
<path d="M39.6693 13.5576C39.6263 13.5576 39.5885 13.5732 39.5573 13.6032C39.5273 13.6344 39.5117 13.6722 39.5117 13.7152C39.5117 13.7594 39.5273 13.7959 39.5573 13.8271C39.5885 13.8584 39.6263 13.874 39.6693 13.874C39.7135 13.874 39.7513 13.8584 39.7826 13.8271C39.8125 13.7959 39.8281 13.7594 39.8281 13.7152C39.8281 13.6722 39.8125 13.6344 39.7826 13.6032C39.7513 13.5732 39.7135 13.5576 39.6693 13.5576Z" fill="white"/>
<path d="M38.0834 11.9751C38.0391 11.9751 38.0027 11.9907 37.9714 12.022C37.9402 12.0532 37.9246 12.0897 37.9246 12.134C37.9246 12.1782 37.9402 12.2147 37.9714 12.2459C38.0027 12.2772 38.0391 12.2928 38.0834 12.2928C38.1277 12.2928 38.1641 12.2772 38.1954 12.2459C38.2266 12.2147 38.2423 12.1782 38.2423 12.134C38.2423 12.0897 38.2266 12.0532 38.1954 12.022C38.1641 11.9907 38.1277 11.9751 38.0834 11.9751Z" fill="white"/>
<path d="M39.6693 11.9751C39.6263 11.9751 39.5885 11.9907 39.5573 12.022C39.5273 12.0532 39.5117 12.0897 39.5117 12.134C39.5117 12.1782 39.5273 12.2147 39.5573 12.2459C39.5885 12.2772 39.6263 12.2928 39.6693 12.2928C39.7135 12.2928 39.7513 12.2772 39.7826 12.2459C39.8125 12.2147 39.8281 12.1782 39.8281 12.134C39.8281 12.0897 39.8125 12.0532 39.7826 12.022C39.7513 11.9907 39.7135 11.9751 39.6693 11.9751Z" fill="white"/>
<path d="M37.3792 14.3755C37.3519 14.3573 37.3232 14.3481 37.2907 14.3481C37.2633 14.3481 37.2386 14.3547 37.2151 14.3677C37.193 14.3807 37.1735 14.3976 37.1592 14.4198C37.1435 14.4419 37.1357 14.4653 37.1331 14.4927C37.1305 14.5187 37.1344 14.5435 37.1435 14.5682C37.1631 14.6138 37.1969 14.6437 37.2451 14.658C37.292 14.6724 37.3375 14.6659 37.3792 14.6385C37.4053 14.6216 37.4235 14.5981 37.4365 14.5682C37.4443 14.5487 37.4495 14.5278 37.4495 14.507C37.4495 14.4744 37.4404 14.4458 37.4222 14.4185C37.4105 14.4015 37.3961 14.3872 37.3792 14.3755Z" fill="white"/>
<path d="M37.3792 12.7935C37.3519 12.7752 37.3232 12.7661 37.2907 12.7661C37.2647 12.7661 37.2399 12.7713 37.2165 12.783C37.193 12.7948 37.1748 12.8104 37.1592 12.8312C37.1436 12.8534 37.1344 12.8755 37.1292 12.9015C37.1253 12.9276 37.1279 12.9523 37.1357 12.9771C37.1436 13.0018 37.1566 13.0226 37.1761 13.0409C37.1943 13.0591 37.2165 13.0721 37.2412 13.0799C37.266 13.0877 37.2907 13.089 37.3167 13.0851C37.3415 13.0799 37.3649 13.0708 37.3857 13.0552C37.4066 13.0396 37.4222 13.02 37.4339 12.9966C37.4443 12.9731 37.4495 12.9484 37.4495 12.9224C37.4482 12.8963 37.4417 12.8716 37.43 12.8494C37.417 12.8273 37.4001 12.8078 37.3792 12.7935Z" fill="white"/>
<path d="M38.8761 17.5132C38.8332 17.5132 38.7954 17.5288 38.7642 17.5588C38.7329 17.59 38.7173 17.6278 38.7173 17.6707C38.7173 17.715 38.7329 17.7515 38.7642 17.7827C38.7954 17.814 38.8332 17.8296 38.8761 17.8296C38.9204 17.8296 38.9582 17.814 38.9881 17.7827C39.0194 17.7515 39.035 17.715 39.035 17.6707C39.035 17.6278 39.0194 17.59 38.9881 17.5588C38.9582 17.5288 38.9204 17.5132 38.8761 17.5132Z" fill="white"/>
<path d="M38.8761 15.9312C38.8332 15.9312 38.7954 15.9455 38.7642 15.9767C38.7329 16.008 38.7173 16.0457 38.7173 16.0887C38.7173 16.133 38.7329 16.1694 38.7642 16.2007C38.7954 16.2319 38.8332 16.2476 38.8761 16.2476C38.9204 16.2476 38.9582 16.2319 38.9881 16.2007C39.0194 16.1694 39.035 16.133 39.035 16.0887C39.035 16.0457 39.0194 16.008 38.9881 15.9767C38.9582 15.9455 38.9204 15.9312 38.8761 15.9312Z" fill="white"/>
<path d="M38.0834 16.7212C38.0391 16.7212 38.0027 16.7368 37.9714 16.7681C37.9402 16.7993 37.9246 16.8358 37.9246 16.88C37.9246 16.923 37.9402 16.9608 37.9714 16.992C38.0027 17.022 38.0391 17.0376 38.0834 17.0376C38.1277 17.0376 38.1641 17.022 38.1954 16.992C38.2266 16.9608 38.2423 16.923 38.2423 16.88C38.2423 16.8358 38.2266 16.7993 38.1954 16.7681C38.1641 16.7368 38.1277 16.7212 38.0834 16.7212Z" fill="white"/>
<path d="M39.6693 16.7212C39.6263 16.7212 39.5885 16.7368 39.5573 16.7681C39.5273 16.7993 39.5117 16.8358 39.5117 16.88C39.5117 16.923 39.5273 16.9608 39.5573 16.992C39.5885 17.022 39.6263 17.0376 39.6693 17.0376C39.7135 17.0376 39.7513 17.022 39.7826 16.992C39.8125 16.9608 39.8281 16.923 39.8281 16.88C39.8281 16.8358 39.8125 16.7993 39.7826 16.7681C39.7513 16.7368 39.7135 16.7212 39.6693 16.7212Z" fill="white"/>
<path d="M38.0834 15.1396C38.0391 15.1396 38.0027 15.1553 37.9714 15.1865C37.9402 15.2165 37.9246 15.2542 37.9246 15.2972C37.9246 15.3415 37.9402 15.3792 37.9714 15.4092C38.0027 15.4404 38.0391 15.4561 38.0834 15.4561C38.1277 15.4561 38.1641 15.4404 38.1954 15.4092C38.2266 15.3792 38.2423 15.3415 38.2423 15.2972C38.2423 15.2542 38.2266 15.2165 38.1954 15.1865C38.1641 15.1553 38.1277 15.1396 38.0834 15.1396Z" fill="white"/>
<path d="M39.6693 15.1396C39.6263 15.1396 39.5885 15.1553 39.5573 15.1865C39.5273 15.2165 39.5117 15.2542 39.5117 15.2972C39.5117 15.3415 39.5273 15.3792 39.5573 15.4092C39.5885 15.4404 39.6263 15.4561 39.6693 15.4561C39.7135 15.4561 39.7513 15.4404 39.7826 15.4092C39.8125 15.3792 39.8281 15.3415 39.8281 15.2972C39.8281 15.2542 39.8125 15.2165 39.7826 15.1865C39.7513 15.1553 39.7135 15.1396 39.6693 15.1396Z" fill="white"/>
<path d="M37.3792 17.5405C37.3519 17.5223 37.3232 17.5132 37.2907 17.5132C37.2647 17.5132 37.2399 17.5184 37.2165 17.5301C37.193 17.5418 37.1748 17.5575 37.1592 17.5783C37.1436 17.5991 37.1344 17.6226 37.1292 17.6486C37.1253 17.6733 37.1279 17.6994 37.1357 17.7228C37.1436 17.7476 37.1566 17.7697 37.1761 17.7879C37.1943 17.8062 37.2165 17.8192 37.2412 17.827C37.266 17.8335 37.2907 17.8361 37.3167 17.8309C37.3415 17.827 37.3649 17.8166 37.3857 17.8009C37.4066 17.7853 37.4222 17.7658 37.4339 17.7424C37.4443 17.7189 37.4495 17.6955 37.4495 17.6694C37.4482 17.6434 37.4417 17.6187 37.43 17.5965C37.417 17.5731 37.4001 17.5549 37.3792 17.5405Z" fill="white"/>
<path d="M37.3792 15.9587C37.3519 15.9391 37.3232 15.93 37.2907 15.9313C37.2647 15.93 37.2399 15.9365 37.2165 15.9482C37.193 15.9587 37.1748 15.9756 37.1592 15.9964C37.1436 16.0173 37.1344 16.0407 37.1292 16.0654C37.1253 16.0915 37.1279 16.1162 37.1357 16.141C37.1436 16.1657 37.1566 16.1878 37.1761 16.2061C37.1943 16.223 37.2165 16.236 37.2412 16.2438C37.266 16.2516 37.2907 16.2542 37.3167 16.249C37.3415 16.2451 37.3649 16.2347 37.3857 16.2191C37.4066 16.2035 37.4222 16.1839 37.4339 16.1605C37.4443 16.137 37.4495 16.1123 37.4495 16.0863C37.4482 16.0615 37.4417 16.0368 37.43 16.0133C37.417 15.9912 37.4001 15.973 37.3792 15.9587Z" fill="white"/>
<path d="M38.8764 20.6763C38.8204 20.6776 38.7761 20.701 38.7449 20.7466C38.7136 20.7948 38.7084 20.8442 38.7306 20.8963C38.7579 20.9601 38.8074 20.9927 38.8764 20.9927C38.9467 20.9927 38.9949 20.9601 39.0235 20.8963C39.0313 20.8768 39.0353 20.856 39.0353 20.8351C39.0353 20.8026 39.0261 20.7739 39.0079 20.7466C38.9767 20.701 38.9324 20.6776 38.8764 20.6763Z" fill="white"/>
<path d="M38.8762 19.0952C38.8319 19.0952 38.7942 19.1108 38.7629 19.1408C38.7317 19.172 38.7161 19.2098 38.7161 19.2541C38.7161 19.2983 38.7317 19.3361 38.7629 19.3674C38.7942 19.3986 38.8319 19.4142 38.8762 19.4142C38.9205 19.4142 38.9583 19.3986 38.9895 19.366C39.0194 19.3348 39.0351 19.297 39.0351 19.2541C39.0351 19.2098 39.0194 19.172 38.9882 19.1421C38.9583 19.1108 38.9205 19.0952 38.8762 19.0952Z" fill="white"/>
<path d="M38.0834 19.8877C38.0391 19.8877 38.0027 19.902 37.9714 19.9333C37.9402 19.9645 37.9246 20.001 37.9246 20.0452C37.9246 20.0882 37.9402 20.126 37.9714 20.1572C38.0014 20.1885 38.0391 20.2028 38.0821 20.2041C38.1264 20.2041 38.1641 20.1885 38.1954 20.1585C38.2266 20.1273 38.2423 20.0895 38.2423 20.0465C38.2423 20.0023 38.2266 19.9645 38.1967 19.9333C38.1654 19.9033 38.1277 19.8877 38.0834 19.8877Z" fill="white"/>
<path d="M39.6693 19.8877C39.6263 19.8877 39.5885 19.902 39.5573 19.9333C39.5273 19.9645 39.5117 20.001 39.5117 20.0452C39.5117 20.0882 39.526 20.126 39.5573 20.1572C39.5885 20.1885 39.625 20.2028 39.6693 20.2041C39.7122 20.2041 39.75 20.1885 39.7812 20.1585C39.8125 20.1273 39.8281 20.0895 39.8281 20.0465C39.8294 20.0023 39.8138 19.9645 39.7826 19.9333C39.7513 19.9033 39.7135 19.8877 39.6693 19.8877Z" fill="white"/>
<path d="M38.0834 18.3037C38.0391 18.3037 38.0027 18.3193 37.9714 18.3506C37.9402 18.3818 37.9246 18.4183 37.9246 18.4626C37.9246 18.5055 37.9402 18.5433 37.9714 18.5745C38.0027 18.6058 38.0391 18.6201 38.0834 18.6201C38.1277 18.6201 38.1641 18.6058 38.1954 18.5745C38.2266 18.5433 38.2423 18.5055 38.2423 18.4626C38.2423 18.4183 38.2266 18.3818 38.1954 18.3506C38.1641 18.3193 38.1277 18.3037 38.0834 18.3037Z" fill="white"/>
<path d="M39.6693 18.3037C39.6263 18.3037 39.5885 18.3193 39.5573 18.3506C39.5273 18.3818 39.5117 18.4183 39.5117 18.4626C39.5117 18.5055 39.5273 18.5433 39.5573 18.5745C39.5885 18.6058 39.6263 18.6201 39.6693 18.6201C39.7135 18.6201 39.7513 18.6058 39.7826 18.5745C39.8125 18.5433 39.8281 18.5055 39.8281 18.4626C39.8281 18.4183 39.8125 18.3818 39.7826 18.3506C39.7513 18.3193 39.7135 18.3037 39.6693 18.3037Z" fill="white"/>
<path d="M37.3788 20.7049C37.3423 20.6802 37.302 20.6723 37.259 20.6802C37.216 20.6893 37.1822 20.7114 37.1574 20.7479C37.1262 20.796 37.1223 20.8455 37.1431 20.8976C37.1626 20.9432 37.1965 20.9731 37.2447 20.9874C37.2915 21.0018 37.3371 20.9953 37.3788 20.9679C37.4048 20.9497 37.423 20.9262 37.4361 20.8976C37.4439 20.8781 37.4491 20.8572 37.4491 20.8364C37.4491 20.8039 37.44 20.7752 37.4217 20.7479C37.41 20.7309 37.3957 20.7166 37.3788 20.7049Z" fill="white"/>
<path d="M37.379 19.1226C37.3516 19.1043 37.323 19.0952 37.2904 19.0952C37.2488 19.0991 37.2136 19.116 37.1863 19.146C37.1576 19.1759 37.1433 19.2124 37.1433 19.2541C37.1433 19.2957 37.1576 19.3309 37.1863 19.3621C37.2136 19.3921 37.2488 19.409 37.2904 19.4129C37.323 19.4129 37.3516 19.4038 37.379 19.3856C37.3998 19.37 37.4181 19.3517 37.4298 19.3283C37.4428 19.3049 37.448 19.2801 37.448 19.2541C37.448 19.228 37.4428 19.2033 37.4298 19.1799C37.4181 19.1564 37.3998 19.1369 37.379 19.1226Z" fill="white"/>
<path d="M38.0834 21.4697C38.0391 21.4697 38.0027 21.4854 37.9714 21.5153C37.9402 21.5465 37.9246 21.5843 37.9246 21.6273C37.9246 21.6715 37.9402 21.708 37.9714 21.7393C38.0014 21.7705 38.0391 21.7861 38.0821 21.7861C38.1264 21.7861 38.1641 21.7705 38.1954 21.7406C38.2266 21.7093 38.2423 21.6729 38.2423 21.6286C38.2423 21.5843 38.2266 21.5479 38.1967 21.5166C38.1654 21.4854 38.1277 21.4697 38.0834 21.4697Z" fill="white"/>
<path d="M39.6693 21.4697C39.6263 21.4697 39.5885 21.4854 39.5573 21.5153C39.5273 21.5465 39.5117 21.5843 39.5117 21.6273C39.5117 21.6715 39.526 21.708 39.5573 21.7393C39.5885 21.7705 39.625 21.7861 39.6693 21.7861C39.7122 21.7861 39.75 21.7705 39.7812 21.7406C39.8125 21.7093 39.8281 21.6729 39.8281 21.6286C39.8294 21.5843 39.8138 21.5479 39.7826 21.5166C39.7513 21.4854 39.7135 21.4697 39.6693 21.4697Z" fill="white"/>
<path d="M35.7032 4.85352C35.6602 4.85352 35.6225 4.86914 35.5912 4.90039C35.5613 4.93034 35.5457 4.9681 35.5457 5.01237C35.5457 5.05534 35.5613 5.0931 35.5912 5.12435C35.6225 5.1543 35.6602 5.16992 35.7032 5.16992C35.7475 5.16992 35.7852 5.1543 35.8165 5.12435C35.8464 5.0931 35.8621 5.05534 35.8621 5.01237C35.8621 4.9681 35.8464 4.93034 35.8165 4.90039C35.7852 4.86914 35.7475 4.85352 35.7032 4.85352Z" fill="white"/>
<path d="M36.4977 4.06299C36.4535 4.06299 36.4157 4.07861 36.3844 4.10986C36.3545 4.14111 36.3389 4.17757 36.3389 4.22184C36.3389 4.26481 36.3545 4.30257 36.3844 4.33382C36.4157 4.36507 36.4535 4.37939 36.4977 4.37939C36.5407 4.37939 36.5785 4.36507 36.6097 4.33382C36.641 4.30257 36.6553 4.26481 36.6553 4.22184C36.6566 4.17757 36.641 4.14111 36.6097 4.10986C36.5785 4.07861 36.5407 4.06299 36.4977 4.06299Z" fill="white"/>
<path d="M35.7032 8.01855C35.6472 8.01855 35.6029 8.04199 35.5717 8.08887C35.5535 8.11621 35.5457 8.14486 35.5457 8.17741C35.5457 8.19824 35.5496 8.21908 35.5574 8.23861C35.5847 8.30241 35.6342 8.33496 35.7032 8.33496C35.7735 8.33496 35.823 8.30241 35.8503 8.23861C35.8582 8.21908 35.8621 8.19824 35.8621 8.17741C35.8621 8.14486 35.8529 8.11621 35.8347 8.08887C35.8035 8.04329 35.7605 8.01986 35.7032 8.01855Z" fill="white"/>
<path d="M35.7032 6.43652C35.6602 6.43652 35.6225 6.45215 35.5912 6.4834C35.5613 6.51465 35.5457 6.55111 35.5457 6.59538C35.5457 6.63835 35.5613 6.67611 35.5912 6.70736C35.6225 6.7373 35.6602 6.75293 35.7032 6.75293C35.7475 6.75293 35.7852 6.7373 35.8165 6.70736C35.8464 6.67611 35.8621 6.63835 35.8621 6.59538C35.8621 6.55111 35.8464 6.51465 35.8165 6.4834C35.7852 6.45215 35.7475 6.43652 35.7032 6.43652Z" fill="white"/>
<path d="M34.9101 7.229C34.8671 7.229 34.8293 7.24463 34.7981 7.27458C34.7668 7.30583 34.7512 7.34359 34.7512 7.38656C34.7512 7.43083 34.7668 7.46859 34.7981 7.49854C34.8293 7.52979 34.8671 7.54541 34.9101 7.54541C34.9543 7.54541 34.9921 7.52979 35.0221 7.49854C35.0533 7.46859 35.0689 7.43083 35.0689 7.38656C35.0689 7.34359 35.0533 7.30583 35.0221 7.27458C34.9921 7.24463 34.9543 7.229 34.9101 7.229Z" fill="white"/>
<path d="M36.4977 7.229C36.4535 7.229 36.4157 7.24463 36.3844 7.27458C36.3545 7.30583 36.3389 7.34359 36.3389 7.38656C36.3389 7.43083 36.3545 7.46859 36.3844 7.49854C36.4157 7.52979 36.4535 7.54541 36.4977 7.54541C36.5407 7.54541 36.5785 7.52979 36.6097 7.49854C36.641 7.46859 36.6553 7.43083 36.6553 7.38656C36.6553 7.34359 36.641 7.30583 36.6097 7.27458C36.5785 7.24463 36.5407 7.229 36.4977 7.229Z" fill="white"/>
<path d="M36.4977 5.64558C36.4535 5.64558 36.4157 5.65991 36.3844 5.69116C36.3545 5.72241 36.3389 5.76017 36.3389 5.80314C36.3389 5.84741 36.3545 5.88386 36.3844 5.91511C36.4157 5.94636 36.4535 5.96199 36.4977 5.96199C36.5407 5.96199 36.5785 5.94636 36.6097 5.91511C36.641 5.88386 36.6553 5.84741 36.6553 5.80314C36.6566 5.75886 36.641 5.72241 36.6097 5.69116C36.5785 5.65991 36.5407 5.64428 36.4977 5.64558Z" fill="white"/>
<path d="M34.1462 8.02197C34.1357 8.02067 34.1253 8.02067 34.1149 8.02197C34.0928 8.02197 34.0719 8.02588 34.0524 8.03369C34.0238 8.04671 34.0003 8.06624 33.9821 8.09229C33.9639 8.11833 33.9561 8.14827 33.9561 8.17952C33.9561 8.20166 33.96 8.22249 33.9678 8.24202C33.9847 8.28109 34.0133 8.30973 34.0524 8.32666C34.0719 8.33447 34.0928 8.33838 34.1149 8.33838C34.1253 8.33968 34.1357 8.33968 34.1462 8.33838C34.1995 8.32666 34.236 8.29541 34.2568 8.24463C34.266 8.2251 34.2699 8.20557 34.2699 8.18343C34.2699 8.15088 34.2607 8.12223 34.2425 8.09619C34.2204 8.05713 34.1878 8.03369 34.1462 8.02197Z" fill="white"/>
<path d="M35.7032 11.1841C35.6602 11.1841 35.6225 11.1997 35.5912 11.2297C35.5613 11.2609 35.5457 11.2987 35.5457 11.3416C35.5457 11.3859 35.5613 11.4237 35.5912 11.4536C35.6225 11.4849 35.6602 11.5005 35.7032 11.5005C35.7475 11.5005 35.7852 11.4849 35.8165 11.4536C35.8464 11.4237 35.8621 11.3859 35.8621 11.3416C35.8621 11.2987 35.8464 11.2609 35.8165 11.2297C35.7852 11.1997 35.7475 11.1841 35.7032 11.1841Z" fill="white"/>
<path d="M35.7032 9.60205C35.6602 9.60205 35.6225 9.61768 35.5912 9.64762C35.5613 9.67887 35.5457 9.71663 35.5457 9.7596C35.5457 9.80387 35.5613 9.84033 35.5912 9.87158C35.6225 9.90283 35.6602 9.91846 35.7032 9.91846C35.7475 9.91846 35.7852 9.90283 35.8165 9.87158C35.8464 9.84033 35.8621 9.80387 35.8621 9.7596C35.8621 9.71663 35.8464 9.67887 35.8165 9.64762C35.7852 9.61768 35.7475 9.60205 35.7032 9.60205Z" fill="white"/>
<path d="M34.9101 10.3931C34.8671 10.3931 34.8293 10.4087 34.7981 10.4399C34.7668 10.4712 34.7512 10.5076 34.7512 10.5519C34.7512 10.5949 34.7668 10.6326 34.7981 10.6639C34.8293 10.6938 34.8671 10.7095 34.9101 10.7095C34.9543 10.7095 34.9921 10.6938 35.0221 10.6639C35.0533 10.6326 35.0689 10.5949 35.0689 10.5519C35.0689 10.5076 35.0533 10.4712 35.0221 10.4399C34.9921 10.4087 34.9543 10.3931 34.9101 10.3931Z" fill="white"/>
<path d="M36.4977 10.3931C36.4535 10.3931 36.4157 10.4087 36.3844 10.4399C36.3545 10.4712 36.3389 10.5076 36.3389 10.5519C36.3389 10.5949 36.3545 10.6326 36.3844 10.6639C36.4157 10.6938 36.4535 10.7095 36.4977 10.7095C36.5407 10.7095 36.5785 10.6938 36.6097 10.6639C36.641 10.6326 36.6553 10.5949 36.6553 10.5519C36.6553 10.5076 36.641 10.4712 36.6097 10.4399C36.5785 10.4087 36.5407 10.3931 36.4977 10.3931Z" fill="white"/>
<path d="M34.9101 8.80908C34.8671 8.80908 34.8293 8.82471 34.7981 8.85596C34.7668 8.88721 34.7512 8.92367 34.7512 8.96794C34.7512 9.0109 34.7668 9.04867 34.7981 9.07992C34.8293 9.10986 34.8671 9.12549 34.9101 9.12549C34.9543 9.12549 34.9921 9.10986 35.0221 9.07992C35.0533 9.04867 35.0689 9.0109 35.0689 8.96794C35.0689 8.92367 35.0533 8.88721 35.0221 8.85596C34.9921 8.82471 34.9543 8.80908 34.9101 8.80908Z" fill="white"/>
<path d="M36.4977 8.80908C36.4535 8.80908 36.4157 8.82471 36.3844 8.85596C36.3545 8.88721 36.3389 8.92367 36.3389 8.96794C36.3389 9.0109 36.3545 9.04867 36.3844 9.07992C36.4157 9.10986 36.4535 9.12549 36.4977 9.12549C36.5407 9.12549 36.5785 9.10986 36.6097 9.07992C36.641 9.04867 36.6553 9.0109 36.6553 8.96794C36.6553 8.92367 36.641 8.88721 36.6097 8.85596C36.5785 8.82471 36.5407 8.80908 36.4977 8.80908Z" fill="white"/>
<path d="M34.1462 11.187C34.1357 11.187 34.1253 11.187 34.1149 11.187C34.0928 11.187 34.0719 11.1922 34.0524 11.2013C33.9886 11.2287 33.9561 11.2769 33.9561 11.3459C33.9561 11.4162 33.9886 11.4644 34.0524 11.4917C34.0719 11.4995 34.0928 11.5034 34.1149 11.5034C34.1253 11.5047 34.1357 11.5047 34.1462 11.5034C34.1826 11.4969 34.2139 11.4787 34.2373 11.4487C34.2607 11.4201 34.2725 11.3862 34.2725 11.3485C34.2738 11.3107 34.262 11.2756 34.2386 11.2456C34.2152 11.2157 34.1839 11.1961 34.1462 11.187Z" fill="white"/>
<path d="M34.1462 9.604C34.1357 9.6027 34.1253 9.6027 34.1149 9.604C34.0928 9.604 34.0719 9.60791 34.0524 9.61702C33.9886 9.64437 33.9561 9.69385 33.9561 9.76286C33.9561 9.83317 33.9886 9.88135 34.0524 9.90869C34.0719 9.9165 34.0928 9.92041 34.1149 9.92041C34.1253 9.92171 34.1357 9.92171 34.1462 9.92041C34.1826 9.9126 34.2139 9.89437 34.2373 9.86572C34.2607 9.83708 34.2725 9.80322 34.2725 9.76546C34.2738 9.7277 34.262 9.69255 34.2386 9.6626C34.2152 9.63135 34.1839 9.61182 34.1462 9.604Z" fill="white"/>
<path d="M35.703 14.3481C35.677 14.3481 35.6522 14.3547 35.6288 14.3677C35.6054 14.3807 35.5871 14.3976 35.5715 14.4198C35.5572 14.4419 35.5481 14.4653 35.5455 14.4927C35.5429 14.5187 35.5468 14.5435 35.5572 14.5682C35.5845 14.632 35.634 14.6646 35.703 14.6646C35.7733 14.6646 35.8228 14.632 35.8501 14.5682C35.858 14.5487 35.8619 14.5278 35.8619 14.507C35.8619 14.4744 35.8528 14.4458 35.8345 14.4185C35.8033 14.3729 35.7603 14.3494 35.703 14.3481Z" fill="white"/>
<path d="M35.7032 12.7646C35.6602 12.7646 35.6225 12.7803 35.5912 12.8115C35.5613 12.8428 35.5457 12.8792 35.5457 12.9235C35.5457 12.9665 35.5613 13.0042 35.5912 13.0355C35.6225 13.0654 35.6602 13.0811 35.7032 13.0811C35.7475 13.0811 35.7852 13.0654 35.8165 13.0355C35.8464 13.0042 35.8621 12.9665 35.8621 12.9235C35.8621 12.8792 35.8464 12.8428 35.8165 12.8115C35.7852 12.7803 35.7475 12.7646 35.7032 12.7646Z" fill="white"/>
<path d="M34.9101 13.5576C34.8671 13.5576 34.8293 13.5732 34.7981 13.6032C34.7668 13.6344 34.7512 13.6722 34.7512 13.7152C34.7512 13.7594 34.7668 13.7959 34.7981 13.8271C34.8293 13.8584 34.8671 13.874 34.9101 13.874C34.9543 13.874 34.9921 13.8584 35.0221 13.8271C35.0533 13.7959 35.0689 13.7594 35.0689 13.7152C35.0689 13.6722 35.0533 13.6344 35.0221 13.6032C34.9921 13.5732 34.9543 13.5576 34.9101 13.5576Z" fill="white"/>
<path d="M36.4977 13.5576C36.4535 13.5576 36.4157 13.5732 36.3844 13.6032C36.3545 13.6344 36.3389 13.6722 36.3389 13.7152C36.3389 13.7594 36.3545 13.7959 36.3844 13.8271C36.4157 13.8584 36.4535 13.874 36.4977 13.874C36.5407 13.874 36.5785 13.8584 36.6097 13.8271C36.641 13.7959 36.6553 13.7594 36.6553 13.7152C36.6553 13.6722 36.641 13.6344 36.6097 13.6032C36.5785 13.5732 36.5407 13.5576 36.4977 13.5576Z" fill="white"/>
<path d="M34.9101 11.9751C34.8671 11.9751 34.8293 11.9907 34.7981 12.022C34.7668 12.0532 34.7512 12.0897 34.7512 12.134C34.7512 12.1782 34.7668 12.2147 34.7981 12.2459C34.8293 12.2772 34.8671 12.2928 34.9101 12.2928C34.9543 12.2928 34.9921 12.2772 35.0221 12.2459C35.0533 12.2147 35.0689 12.1782 35.0689 12.134C35.0689 12.0897 35.0533 12.0532 35.0221 12.022C34.9921 11.9907 34.9543 11.9751 34.9101 11.9751Z" fill="white"/>
<path d="M36.4977 11.9751C36.4535 11.9751 36.4157 11.9907 36.3844 12.022C36.3545 12.0532 36.3389 12.0897 36.3389 12.134C36.3389 12.1782 36.3545 12.2147 36.3844 12.2459C36.4157 12.2772 36.4535 12.2928 36.4977 12.2928C36.5407 12.2928 36.5785 12.2772 36.6097 12.2459C36.641 12.2147 36.6553 12.1782 36.6553 12.134C36.6553 12.0897 36.641 12.0532 36.6097 12.022C36.5785 11.9907 36.5407 11.9751 36.4977 11.9751Z" fill="white"/>
<path d="M34.1462 14.3521C34.1357 14.3507 34.1253 14.3507 34.1149 14.3521C34.0928 14.3521 34.0719 14.356 34.0524 14.3651C34.0238 14.3768 34.0003 14.3963 33.9821 14.4224C33.9639 14.4484 33.9561 14.4784 33.9561 14.5096C33.9561 14.5317 33.96 14.5513 33.9678 14.5721C33.9847 14.6112 34.0133 14.6398 34.0524 14.6567C34.0719 14.6646 34.0928 14.6685 34.1149 14.6685C34.1253 14.6698 34.1357 14.6698 34.1462 14.6685C34.1995 14.6567 34.236 14.6255 34.2568 14.5747C34.266 14.5552 34.2699 14.5343 34.2699 14.5135C34.2699 14.481 34.2607 14.4523 34.2425 14.425C34.2204 14.3872 34.1878 14.3638 34.1462 14.3521Z" fill="white"/>
<path d="M34.1462 12.7651C34.1357 12.7638 34.1253 12.7638 34.1149 12.7651C34.0928 12.7651 34.0719 12.769 34.0524 12.7782C33.9886 12.8055 33.9561 12.855 33.9561 12.924C33.9561 12.9943 33.9886 13.0425 34.0524 13.0698C34.0719 13.0776 34.0928 13.0815 34.1149 13.0815C34.1253 13.0828 34.1357 13.0828 34.1462 13.0815C34.1826 13.0737 34.2139 13.0555 34.2373 13.0269C34.2607 12.9982 34.2725 12.9644 34.2725 12.9266C34.2738 12.8888 34.262 12.8537 34.2386 12.8237C34.2152 12.7925 34.1839 12.7743 34.1462 12.7651Z" fill="white"/>
<path d="M35.7032 17.5132C35.6602 17.5132 35.6225 17.5288 35.5912 17.5588C35.5613 17.59 35.5457 17.6278 35.5457 17.6707C35.5457 17.715 35.5613 17.7515 35.5912 17.7827C35.6225 17.814 35.6602 17.8296 35.7032 17.8296C35.7475 17.8296 35.7852 17.814 35.8165 17.7827C35.8464 17.7515 35.8621 17.715 35.8621 17.6707C35.8621 17.6278 35.8464 17.59 35.8165 17.5588C35.7852 17.5288 35.7475 17.5132 35.7032 17.5132Z" fill="white"/>
<path d="M35.7032 15.9312C35.6602 15.9312 35.6225 15.9455 35.5912 15.9767C35.5613 16.008 35.5457 16.0457 35.5457 16.0887C35.5457 16.133 35.5613 16.1694 35.5912 16.2007C35.6225 16.2319 35.6602 16.2476 35.7032 16.2476C35.7475 16.2476 35.7852 16.2319 35.8165 16.2007C35.8464 16.1694 35.8621 16.133 35.8621 16.0887C35.8621 16.0457 35.8464 16.008 35.8165 15.9767C35.7852 15.9455 35.7475 15.9312 35.7032 15.9312Z" fill="white"/>
<path d="M34.9101 16.7212C34.8671 16.7212 34.8293 16.7368 34.7981 16.7681C34.7668 16.7993 34.7512 16.8358 34.7512 16.88C34.7512 16.923 34.7668 16.9608 34.7981 16.992C34.8293 17.022 34.8671 17.0376 34.9101 17.0376C34.9543 17.0376 34.9921 17.022 35.0221 16.992C35.0533 16.9608 35.0689 16.923 35.0689 16.88C35.0689 16.8358 35.0533 16.7993 35.0221 16.7681C34.9921 16.7368 34.9543 16.7212 34.9101 16.7212Z" fill="white"/>
<path d="M36.4977 16.7212C36.4535 16.7212 36.4157 16.7368 36.3844 16.7681C36.3545 16.7993 36.3389 16.8358 36.3389 16.88C36.3389 16.923 36.3545 16.9608 36.3844 16.992C36.4157 17.022 36.4535 17.0376 36.4977 17.0376C36.5407 17.0376 36.5785 17.022 36.6097 16.992C36.641 16.9608 36.6553 16.923 36.6553 16.88C36.6553 16.8358 36.641 16.7993 36.6097 16.7681C36.5785 16.7368 36.5407 16.7212 36.4977 16.7212Z" fill="white"/>
<path d="M34.9101 15.1396C34.8671 15.1396 34.8293 15.1553 34.7981 15.1865C34.7668 15.2165 34.7512 15.2542 34.7512 15.2972C34.7512 15.3415 34.7668 15.3792 34.7981 15.4092C34.8293 15.4404 34.8671 15.4561 34.9101 15.4561C34.9543 15.4561 34.9921 15.4404 35.0221 15.4092C35.0533 15.3792 35.0689 15.3415 35.0689 15.2972C35.0689 15.2542 35.0533 15.2165 35.0221 15.1865C34.9921 15.1553 34.9543 15.1396 34.9101 15.1396Z" fill="white"/>
<path d="M36.4977 15.1396C36.4535 15.1396 36.4157 15.1553 36.3844 15.1865C36.3545 15.2165 36.3389 15.2542 36.3389 15.2972C36.3389 15.3415 36.3545 15.3792 36.3844 15.4092C36.4157 15.4404 36.4535 15.4561 36.4977 15.4561C36.5407 15.4561 36.5785 15.4404 36.6097 15.4092C36.641 15.3792 36.6553 15.3415 36.6553 15.2972C36.6553 15.2542 36.641 15.2165 36.6097 15.1865C36.5785 15.1553 36.5407 15.1396 36.4977 15.1396Z" fill="white"/>
<path d="M34.1462 17.5161C34.1357 17.5148 34.1253 17.5148 34.1149 17.5161C34.0928 17.5161 34.0719 17.5213 34.0524 17.5291C33.9886 17.5565 33.9561 17.606 33.9561 17.675C33.9561 17.7453 33.9886 17.7935 34.0524 17.8208C34.0719 17.8286 34.0928 17.8325 34.1149 17.8325C34.1253 17.8338 34.1357 17.8338 34.1462 17.8325C34.1826 17.826 34.2139 17.8065 34.2373 17.7778C34.2607 17.7492 34.2725 17.7153 34.2725 17.6776C34.2738 17.6398 34.262 17.6047 34.2386 17.5747C34.2152 17.5435 34.1839 17.5252 34.1462 17.5161Z" fill="white"/>
<path d="M34.1462 15.9341C34.1357 15.9328 34.1253 15.9328 34.1149 15.9341C34.0928 15.9341 34.0719 15.938 34.0524 15.9471C33.9886 15.9744 33.9561 16.0226 33.9561 16.0929C33.9561 16.1632 33.9886 16.2114 34.0524 16.2388C34.0719 16.2466 34.0928 16.2505 34.1149 16.2505H34.1462C34.2295 16.2323 34.2712 16.1802 34.2712 16.0955C34.2712 16.0096 34.2295 15.9588 34.1462 15.9393V15.9341Z" fill="white"/>
<path d="M35.7028 20.6763C35.6468 20.6776 35.6026 20.701 35.5713 20.7466C35.5401 20.7948 35.5348 20.8442 35.557 20.8963C35.5843 20.9601 35.6338 20.9927 35.7028 20.9927C35.7731 20.9927 35.8226 20.9601 35.85 20.8963C35.8578 20.8768 35.8617 20.856 35.8617 20.8351C35.8617 20.8026 35.8526 20.7739 35.8343 20.7466C35.8031 20.701 35.7601 20.6776 35.7028 20.6763Z" fill="white"/>
<path d="M35.7031 19.0952C35.6589 19.0952 35.6211 19.1108 35.5898 19.1408C35.5586 19.172 35.543 19.2098 35.543 19.2541C35.543 19.2983 35.5586 19.3361 35.5898 19.3674C35.6211 19.3986 35.6589 19.4142 35.7031 19.4142C35.7474 19.4142 35.7852 19.3986 35.8164 19.366C35.8477 19.3348 35.8633 19.297 35.862 19.2541C35.862 19.2098 35.8464 19.172 35.8164 19.1421C35.7852 19.1108 35.7474 19.0952 35.7031 19.0952Z" fill="white"/>
<path d="M34.9101 19.8877C34.8671 19.8877 34.8293 19.902 34.7981 19.9333C34.7668 19.9645 34.7512 20.001 34.7512 20.0452C34.7512 20.0882 34.7668 20.126 34.7981 20.1572C34.828 20.1885 34.8658 20.2028 34.9101 20.2041C34.953 20.2041 34.9908 20.1885 35.0221 20.1585C35.0533 20.1273 35.0689 20.0895 35.0689 20.0465C35.0689 20.0023 35.0546 19.9645 35.0234 19.9333C34.9921 19.9033 34.9543 19.8877 34.9101 19.8877Z" fill="white"/>
<path d="M36.4977 19.8877C36.4535 19.8877 36.4157 19.902 36.3857 19.9333C36.3545 19.9645 36.3389 20.001 36.3389 20.0452C36.3389 20.0882 36.3545 20.126 36.3844 20.1572C36.4157 20.1885 36.4521 20.2028 36.4964 20.2041C36.5407 20.2041 36.5771 20.1885 36.6084 20.1585C36.6396 20.1273 36.6553 20.0895 36.6553 20.0465C36.6566 20.0023 36.641 19.9645 36.6097 19.9333C36.5785 19.9033 36.5407 19.8877 36.4977 19.8877Z" fill="white"/>
<path d="M34.9101 18.3037C34.8671 18.3037 34.8293 18.3193 34.7981 18.3506C34.7668 18.3818 34.7512 18.4183 34.7512 18.4626C34.7512 18.5055 34.7668 18.5433 34.7981 18.5745C34.8293 18.6058 34.8671 18.6201 34.9101 18.6201C34.9543 18.6201 34.9921 18.6058 35.0221 18.5745C35.0533 18.5433 35.0689 18.5055 35.0689 18.4626C35.0689 18.4183 35.0533 18.3818 35.0221 18.3506C34.9921 18.3193 34.9543 18.3037 34.9101 18.3037Z" fill="white"/>
<path d="M36.4977 18.3037C36.4535 18.3037 36.4157 18.3193 36.3844 18.3506C36.3545 18.3818 36.3389 18.4183 36.3389 18.4626C36.3389 18.5055 36.3545 18.5433 36.3844 18.5745C36.4157 18.6058 36.4535 18.6201 36.4977 18.6201C36.5407 18.6201 36.5785 18.6058 36.6097 18.5745C36.641 18.5433 36.6553 18.5055 36.6553 18.4626C36.6553 18.4183 36.641 18.3818 36.6097 18.3506C36.5785 18.3193 36.5407 18.3037 36.4977 18.3037Z" fill="white"/>
<path d="M34.146 20.6758C34.1355 20.6745 34.1251 20.6745 34.1147 20.6758C34.0874 20.6771 34.0626 20.6823 34.0392 20.6953C34.0158 20.7083 33.9975 20.7253 33.9819 20.7474C33.9676 20.7695 33.9585 20.793 33.9559 20.8203C33.9533 20.8464 33.9572 20.8711 33.9676 20.8958C33.9845 20.9362 34.0132 20.9635 34.0522 20.9805C34.0717 20.9883 34.0926 20.9922 34.1147 20.9922C34.1251 20.9935 34.1355 20.9935 34.146 20.9922C34.1993 20.9818 34.2358 20.9505 34.2566 20.8997C34.2658 20.8802 34.2697 20.8594 34.2697 20.8372C34.2697 20.806 34.2605 20.776 34.2423 20.75C34.2202 20.7122 34.1876 20.6875 34.146 20.6758Z" fill="white"/>
<path d="M34.1462 19.1001C34.1357 19.0988 34.1253 19.0988 34.1149 19.1001C34.0928 19.0988 34.0719 19.104 34.0524 19.1131C33.9886 19.1405 33.9561 19.1886 33.9561 19.2576C33.9561 19.328 33.9886 19.3761 34.0524 19.4035C34.0719 19.4126 34.0928 19.4165 34.1149 19.4165C34.1253 19.4178 34.1357 19.4178 34.1462 19.4165C34.2295 19.3983 34.2712 19.3462 34.2712 19.2616C34.2712 19.1769 34.2295 19.1248 34.1462 19.1066V19.1001Z" fill="white"/>
<path d="M34.9101 21.4697C34.8671 21.4697 34.8293 21.4854 34.7981 21.5153C34.7668 21.5465 34.7512 21.5843 34.7512 21.6273C34.7512 21.6715 34.7668 21.708 34.7981 21.7393C34.828 21.7705 34.8658 21.7861 34.9101 21.7861C34.953 21.7861 34.9908 21.7705 35.0221 21.7406C35.0533 21.7093 35.0689 21.6729 35.0689 21.6286C35.0689 21.5843 35.0546 21.5479 35.0234 21.5166C34.9921 21.4854 34.9543 21.4697 34.9101 21.4697Z" fill="white"/>
<path d="M36.4977 21.4697C36.4535 21.4697 36.4157 21.4854 36.3857 21.5153C36.3545 21.5465 36.3389 21.5843 36.3389 21.6273C36.3389 21.6715 36.3545 21.708 36.3844 21.7393C36.4157 21.7705 36.4521 21.7861 36.4964 21.7861C36.5407 21.7861 36.5771 21.7705 36.6084 21.7406C36.6396 21.7093 36.6553 21.6729 36.6553 21.6286C36.6566 21.5843 36.641 21.5479 36.6097 21.5166C36.5785 21.4854 36.5407 21.4697 36.4977 21.4697Z" fill="white"/>
<path d="M32.5309 11.1841C32.4867 11.1841 32.4489 11.1997 32.4176 11.2297C32.3877 11.2609 32.3721 11.2987 32.3721 11.3416C32.3721 11.3859 32.3877 11.4237 32.4176 11.4536C32.4489 11.4849 32.4867 11.5005 32.5309 11.5005C32.5739 11.5005 32.6117 11.4849 32.6429 11.4536C32.6742 11.4237 32.6885 11.3859 32.6885 11.3416C32.6885 11.2987 32.6742 11.2609 32.6429 11.2297C32.6117 11.1997 32.5739 11.1841 32.5309 11.1841Z" fill="white"/>
<path d="M33.3243 10.3931C33.28 10.3944 33.2436 10.41 33.2123 10.4412C33.1824 10.4725 33.1667 10.509 33.168 10.5532C33.168 10.5962 33.1837 10.634 33.2149 10.6639C33.2462 10.6951 33.2839 10.7095 33.3269 10.7095C33.3712 10.7095 33.4076 10.6938 33.4389 10.6639C33.4701 10.6326 33.4845 10.5949 33.4845 10.5519C33.4845 10.5076 33.4688 10.4699 33.4376 10.4386C33.4063 10.4074 33.3686 10.3931 33.3243 10.3931Z" fill="white"/>
<path d="M33.3243 8.80908C33.28 8.81038 33.2436 8.82601 33.2123 8.85726C33.1824 8.88851 33.1667 8.92497 33.168 8.96924C33.168 9.01221 33.1837 9.04867 33.2149 9.07992C33.2449 9.10986 33.2826 9.12549 33.3269 9.12549C33.3699 9.12549 33.4076 9.10986 33.4376 9.07992C33.4688 9.04867 33.4845 9.01221 33.4845 8.96924C33.4858 8.92497 33.4701 8.8859 33.4376 8.85465C33.4063 8.8234 33.3686 8.80908 33.3243 8.80908Z" fill="white"/>
<path d="M32.5313 14.3481C32.504 14.3481 32.4792 14.3547 32.4558 14.3677C32.4323 14.3807 32.4141 14.3976 32.3985 14.4198C32.3842 14.4419 32.3763 14.4653 32.3737 14.4927C32.3711 14.5187 32.3737 14.5435 32.3842 14.5682C32.4115 14.632 32.461 14.6646 32.5313 14.6646C32.6003 14.6646 32.6498 14.632 32.6771 14.5682C32.6849 14.5487 32.6901 14.5278 32.6888 14.507C32.6901 14.4744 32.681 14.4458 32.6615 14.4185C32.6303 14.3729 32.5873 14.3494 32.5313 14.3481Z" fill="white"/>
<path d="M32.5309 12.7646C32.4867 12.7646 32.4489 12.7803 32.4176 12.8115C32.3877 12.8428 32.3721 12.8792 32.3721 12.9235C32.3721 12.9665 32.3877 13.0042 32.4176 13.0355C32.4489 13.0654 32.4867 13.0811 32.5309 13.0811C32.5739 13.0811 32.6117 13.0654 32.6429 13.0355C32.6742 13.0042 32.6885 12.9665 32.6885 12.9235C32.6885 12.8792 32.6742 12.8428 32.6429 12.8115C32.6117 12.7803 32.5739 12.7646 32.5309 12.7646Z" fill="white"/>
<path d="M31.7369 13.5576C31.6939 13.5576 31.6562 13.5732 31.6249 13.6032C31.5937 13.6344 31.5793 13.6722 31.5793 13.7152C31.5793 13.7594 31.5937 13.7959 31.6249 13.8271C31.6562 13.8584 31.6939 13.874 31.7369 13.874C31.7812 13.874 31.8189 13.8584 31.8502 13.8271C31.8801 13.7959 31.8958 13.7594 31.8958 13.7152C31.8958 13.6722 31.8801 13.6344 31.8502 13.6032C31.8189 13.5732 31.7812 13.5576 31.7369 13.5576Z" fill="white"/>
<path d="M33.3241 13.5576C33.2799 13.5576 33.2421 13.5732 33.2122 13.6032C33.1809 13.6344 33.1653 13.6722 33.1653 13.7152C33.1653 13.7594 33.1809 13.7959 33.2122 13.8271C33.2421 13.8584 33.2799 13.874 33.3241 13.874C33.3671 13.874 33.4049 13.8584 33.4361 13.8271C33.4674 13.7959 33.483 13.7594 33.483 13.7152C33.483 13.6722 33.4674 13.6344 33.4361 13.6032C33.4049 13.5732 33.3671 13.5576 33.3241 13.5576Z" fill="white"/>
<path d="M31.7369 11.9751C31.6939 11.9751 31.6562 11.9907 31.6249 12.022C31.5937 12.0532 31.5793 12.0897 31.5793 12.134C31.5793 12.1782 31.5937 12.2147 31.6249 12.2459C31.6562 12.2772 31.6939 12.2928 31.7369 12.2928C31.7812 12.2928 31.8189 12.2772 31.8502 12.2459C31.8801 12.2147 31.8958 12.1782 31.8958 12.134C31.8958 12.0897 31.8801 12.0532 31.8502 12.022C31.8189 11.9907 31.7812 11.9751 31.7369 11.9751Z" fill="white"/>
<path d="M33.3241 11.9751C33.2799 11.9751 33.2421 11.9907 33.2122 12.022C33.1809 12.0532 33.1653 12.0897 33.1653 12.134C33.1653 12.1782 33.1809 12.2147 33.2122 12.2459C33.2421 12.2772 33.2799 12.2928 33.3241 12.2928C33.3671 12.2928 33.4049 12.2772 33.4361 12.2459C33.4674 12.2147 33.483 12.1782 33.483 12.134C33.483 12.0897 33.4674 12.0532 33.4361 12.022C33.4049 11.9907 33.3671 11.9751 33.3241 11.9751Z" fill="white"/>
<path d="M31.032 14.3755C31.006 14.3573 30.976 14.3481 30.9435 14.3481C30.9174 14.3481 30.8927 14.3547 30.8693 14.3677C30.8458 14.3807 30.8263 14.3976 30.812 14.4198C30.7977 14.4419 30.7885 14.4653 30.7859 14.4927C30.7833 14.5187 30.7872 14.5435 30.7977 14.5682C30.8172 14.6138 30.851 14.6437 30.8979 14.658C30.9461 14.6724 30.9904 14.6659 31.032 14.6385C31.0581 14.6203 31.0776 14.5968 31.0906 14.5682C31.0984 14.5487 31.1023 14.5278 31.1023 14.507C31.1023 14.4744 31.0932 14.4458 31.075 14.4185C31.0646 14.4015 31.0503 14.3872 31.032 14.3755Z" fill="white"/>
<path d="M31.0331 12.7935C31.007 12.7752 30.9771 12.7661 30.9445 12.7661C30.9185 12.7661 30.8937 12.7713 30.8716 12.783C30.8482 12.7948 30.8286 12.8104 30.813 12.8312C30.7974 12.8534 30.7883 12.8755 30.7844 12.9015C30.7805 12.9276 30.7818 12.9523 30.7896 12.9771C30.7987 13.0018 30.8117 13.0226 30.8299 13.0409C30.8482 13.0591 30.8703 13.0721 30.895 13.0799C30.9198 13.0877 30.9445 13.089 30.9706 13.0851C30.9966 13.0799 31.0187 13.0708 31.0396 13.0552C31.0604 13.0396 31.076 13.02 31.0877 12.9966C31.0995 12.9731 31.1047 12.9484 31.1034 12.9224C31.1034 12.8963 31.0969 12.8716 31.0838 12.8494C31.0721 12.8273 31.0539 12.8078 31.0331 12.7935Z" fill="white"/>
<path d="M32.5309 17.5132C32.4867 17.5132 32.4489 17.5288 32.4176 17.5588C32.3877 17.59 32.3721 17.6278 32.3721 17.6707C32.3721 17.715 32.3877 17.7515 32.4176 17.7827C32.4489 17.814 32.4867 17.8296 32.5309 17.8296C32.5739 17.8296 32.6117 17.814 32.6429 17.7827C32.6742 17.7515 32.6885 17.715 32.6885 17.6707C32.6885 17.6278 32.6742 17.59 32.6429 17.5588C32.6117 17.5288 32.5739 17.5132 32.5309 17.5132Z" fill="white"/>
<path d="M32.5309 15.9312C32.4867 15.9312 32.4489 15.9455 32.4176 15.9767C32.3877 16.008 32.3721 16.0457 32.3721 16.0887C32.3721 16.133 32.3877 16.1694 32.4176 16.2007C32.4489 16.2319 32.4867 16.2476 32.5309 16.2476C32.5739 16.2476 32.6117 16.2319 32.6429 16.2007C32.6742 16.1694 32.6885 16.133 32.6885 16.0887C32.6885 16.0457 32.6742 16.008 32.6429 15.9767C32.6117 15.9455 32.5739 15.9312 32.5309 15.9312Z" fill="white"/>
<path d="M31.7369 16.7212C31.6939 16.7212 31.6562 16.7368 31.6249 16.7681C31.5937 16.7993 31.5793 16.8358 31.5793 16.88C31.5793 16.923 31.5937 16.9608 31.6249 16.992C31.6562 17.022 31.6939 17.0376 31.7369 17.0376C31.7812 17.0376 31.8189 17.022 31.8502 16.992C31.8801 16.9608 31.8958 16.923 31.8958 16.88C31.8958 16.8358 31.8801 16.7993 31.8502 16.7681C31.8189 16.7368 31.7812 16.7212 31.7369 16.7212Z" fill="white"/>
<path d="M33.3241 16.7212C33.2799 16.7212 33.2421 16.7368 33.2122 16.7681C33.1809 16.7993 33.1653 16.8358 33.1653 16.88C33.1653 16.923 33.1809 16.9608 33.2122 16.992C33.2421 17.022 33.2799 17.0376 33.3241 17.0376C33.3671 17.0376 33.4049 17.022 33.4361 16.992C33.4674 16.9608 33.483 16.923 33.483 16.88C33.483 16.8358 33.4674 16.7993 33.4361 16.7681C33.4049 16.7368 33.3671 16.7212 33.3241 16.7212Z" fill="white"/>
<path d="M31.7369 15.1396C31.6939 15.1396 31.6562 15.1553 31.6249 15.1865C31.5937 15.2165 31.5793 15.2542 31.5793 15.2972C31.5793 15.3415 31.5937 15.3792 31.6249 15.4092C31.6562 15.4404 31.6939 15.4561 31.7369 15.4561C31.7812 15.4561 31.8189 15.4404 31.8502 15.4092C31.8801 15.3792 31.8958 15.3415 31.8958 15.2972C31.8958 15.2542 31.8801 15.2165 31.8502 15.1865C31.8189 15.1553 31.7812 15.1396 31.7369 15.1396Z" fill="white"/>
<path d="M33.3241 15.1396C33.2799 15.1396 33.2421 15.1553 33.2122 15.1865C33.1809 15.2165 33.1653 15.2542 33.1653 15.2972C33.1653 15.3415 33.1809 15.3792 33.2122 15.4092C33.2421 15.4404 33.2799 15.4561 33.3241 15.4561C33.3671 15.4561 33.4049 15.4404 33.4361 15.4092C33.4674 15.3792 33.483 15.3415 33.483 15.2972C33.483 15.2542 33.4674 15.2165 33.4361 15.1865C33.4049 15.1553 33.3671 15.1396 33.3241 15.1396Z" fill="white"/>
<path d="M31.0331 17.5405C31.007 17.5223 30.9771 17.5132 30.9445 17.5132C30.9185 17.5132 30.8937 17.5184 30.8716 17.5301C30.8482 17.5418 30.8286 17.5575 30.813 17.5783C30.7974 17.5991 30.7883 17.6226 30.7844 17.6486C30.7805 17.6733 30.7818 17.6994 30.7896 17.7228C30.7987 17.7476 30.8117 17.7697 30.8299 17.7879C30.8482 17.8062 30.8703 17.8192 30.895 17.827C30.9198 17.8335 30.9445 17.8361 30.9706 17.8309C30.9966 17.827 31.0187 17.8166 31.0396 17.8009C31.0604 17.7853 31.076 17.7658 31.0877 17.7424C31.0995 17.7189 31.1047 17.6955 31.1034 17.6694C31.1034 17.6434 31.0969 17.6187 31.0838 17.5965C31.0721 17.5731 31.0539 17.5549 31.0331 17.5405Z" fill="white"/>
<path d="M31.0331 15.9587C31.007 15.9391 30.9771 15.93 30.9445 15.9313C30.9185 15.93 30.8937 15.9365 30.8716 15.9482C30.8482 15.9587 30.8286 15.9756 30.813 15.9964C30.7974 16.0173 30.7883 16.0407 30.7844 16.0654C30.7805 16.0915 30.7818 16.1162 30.7896 16.141C30.7987 16.1657 30.8117 16.1878 30.8299 16.2061C30.8482 16.223 30.8703 16.236 30.895 16.2438C30.9198 16.2516 30.9445 16.2542 30.9706 16.249C30.9966 16.2451 31.0187 16.2347 31.0396 16.2191C31.0604 16.2035 31.076 16.1839 31.0877 16.1605C31.0995 16.137 31.1047 16.1123 31.1034 16.0863C31.1034 16.0615 31.0969 16.0368 31.0838 16.0133C31.0721 15.9912 31.0539 15.973 31.0331 15.9587Z" fill="white"/>
<path d="M32.5313 20.6763C32.474 20.6776 32.4297 20.701 32.3985 20.7466C32.3672 20.7948 32.362 20.8442 32.3829 20.8963C32.4115 20.9601 32.4597 20.9927 32.53 20.9927C32.599 20.9927 32.6485 20.9601 32.6758 20.8963C32.6849 20.8768 32.6889 20.856 32.6889 20.8351C32.6889 20.8026 32.6797 20.7739 32.6602 20.7466C32.6303 20.701 32.586 20.6776 32.5313 20.6763Z" fill="white"/>
<path d="M32.5311 19.0952C32.4868 19.0952 32.4491 19.1108 32.4165 19.1408C32.3853 19.172 32.3696 19.2098 32.3696 19.2541C32.3696 19.2983 32.3853 19.3361 32.4165 19.3674C32.4478 19.3986 32.4855 19.4142 32.5298 19.4142C32.5741 19.4142 32.6118 19.3986 32.6431 19.366C32.6743 19.3348 32.6899 19.297 32.6886 19.2541C32.6886 19.2098 32.6743 19.172 32.6431 19.1421C32.6118 19.1108 32.5741 19.0952 32.5311 19.0952Z" fill="white"/>
<path d="M31.7369 19.8877C31.6939 19.8877 31.6562 19.902 31.6249 19.9333C31.595 19.9645 31.5793 20.001 31.5793 20.0452C31.5793 20.0882 31.5937 20.126 31.6249 20.1572C31.6562 20.1885 31.6926 20.2028 31.7369 20.2041C31.7799 20.2041 31.8176 20.1885 31.8489 20.1585C31.8801 20.1273 31.8958 20.0895 31.8958 20.0465C31.8971 20.0023 31.8814 19.9645 31.8502 19.9333C31.8189 19.9033 31.7812 19.8877 31.7369 19.8877Z" fill="white"/>
<path d="M33.3241 19.8877C33.2799 19.8877 33.2434 19.902 33.2122 19.9333C33.1809 19.9645 33.1653 20.001 33.1653 20.0452C33.1653 20.0882 33.1809 20.126 33.2109 20.1572C33.2421 20.1885 33.2799 20.2028 33.3228 20.2041C33.3671 20.2041 33.4049 20.1885 33.4361 20.1585C33.4661 20.1273 33.4817 20.0895 33.483 20.0465C33.483 20.0023 33.4674 19.9645 33.4361 19.9333C33.4049 19.9033 33.3684 19.8877 33.3241 19.8877Z" fill="white"/>
<path d="M31.7369 18.3037C31.6939 18.3037 31.6562 18.3193 31.6249 18.3506C31.5937 18.3818 31.5793 18.4183 31.5793 18.4626C31.5793 18.5055 31.5937 18.5433 31.6249 18.5745C31.6562 18.6058 31.6939 18.6201 31.7369 18.6201C31.7812 18.6201 31.8189 18.6058 31.8502 18.5745C31.8801 18.5433 31.8958 18.5055 31.8958 18.4626C31.8958 18.4183 31.8801 18.3818 31.8502 18.3506C31.8189 18.3193 31.7812 18.3037 31.7369 18.3037Z" fill="white"/>
<path d="M33.3241 18.3037C33.2799 18.3037 33.2421 18.3193 33.2122 18.3506C33.1809 18.3818 33.1653 18.4183 33.1653 18.4626C33.1653 18.5055 33.1809 18.5433 33.2122 18.5745C33.2421 18.6058 33.2799 18.6201 33.3241 18.6201C33.3671 18.6201 33.4049 18.6058 33.4361 18.5745C33.4674 18.5433 33.483 18.5055 33.483 18.4626C33.483 18.4183 33.4674 18.3818 33.4361 18.3506C33.4049 18.3193 33.3671 18.3037 33.3241 18.3037Z" fill="white"/>
<path d="M31.0326 20.7049C30.9961 20.6802 30.957 20.6723 30.9128 20.6802C30.8698 20.6893 30.836 20.7114 30.8125 20.7479C30.7813 20.796 30.7761 20.8455 30.7982 20.8976C30.8177 20.9432 30.8516 20.9731 30.8985 20.9874C30.9466 21.0018 30.9909 20.9953 31.0326 20.9679C31.0586 20.9497 31.0781 20.9262 31.0912 20.8976C31.099 20.8781 31.1029 20.8572 31.1029 20.8364C31.1029 20.8039 31.0938 20.7752 31.0755 20.7479C31.0638 20.7309 31.0495 20.7166 31.0326 20.7049Z" fill="white"/>
<path d="M31.0325 19.1226C31.0051 19.1043 30.9765 19.0952 30.9439 19.0952C30.9023 19.0991 30.8684 19.116 30.8398 19.146C30.8124 19.1759 30.7981 19.2124 30.7981 19.2541C30.7981 19.2957 30.8124 19.3309 30.8398 19.3621C30.8684 19.3921 30.9023 19.409 30.9439 19.4129C30.9765 19.4129 31.0051 19.4038 31.0325 19.3856C31.0546 19.37 31.0715 19.3517 31.0833 19.3283C31.0963 19.3049 31.1028 19.2801 31.1028 19.2541C31.1028 19.228 31.0963 19.2033 31.0833 19.1799C31.0715 19.1564 31.0546 19.1369 31.0325 19.1226Z" fill="white"/>
<path d="M31.7369 21.4697C31.6939 21.4697 31.6562 21.4854 31.6249 21.5153C31.595 21.5465 31.5793 21.5843 31.5793 21.6273C31.5793 21.6715 31.5937 21.708 31.6249 21.7393C31.6562 21.7705 31.6926 21.7861 31.7369 21.7861C31.7799 21.7861 31.8176 21.7705 31.8489 21.7406C31.8801 21.7093 31.8958 21.6729 31.8958 21.6286C31.8971 21.5843 31.8814 21.5479 31.8502 21.5166C31.8189 21.4854 31.7812 21.4697 31.7369 21.4697Z" fill="white"/>
<path d="M33.3241 21.4697C33.2799 21.4697 33.2434 21.4854 33.2122 21.5153C33.1809 21.5465 33.1653 21.5843 33.1653 21.6273C33.1653 21.6715 33.1809 21.708 33.2109 21.7393C33.2421 21.7705 33.2799 21.7861 33.3228 21.7861C33.3671 21.7861 33.4049 21.7705 33.4361 21.7406C33.4661 21.7093 33.4817 21.6729 33.483 21.6286C33.483 21.5843 33.4674 21.5479 33.4361 21.5166C33.4049 21.4854 33.3684 21.4697 33.3241 21.4697Z" fill="white"/>
<path d="M29.3581 17.5132C29.3138 17.5132 29.276 17.5288 29.2461 17.5588C29.2148 17.59 29.1992 17.6278 29.1992 17.6707C29.1992 17.715 29.2148 17.7515 29.2461 17.7827C29.276 17.814 29.3138 17.8296 29.3581 17.8296C29.401 17.8296 29.4388 17.814 29.4701 17.7827C29.5013 17.7515 29.5169 17.715 29.5169 17.6707C29.5169 17.6278 29.5013 17.59 29.4701 17.5588C29.4388 17.5288 29.401 17.5132 29.3581 17.5132Z" fill="white"/>
<path d="M29.3581 15.9312C29.3138 15.9312 29.276 15.9455 29.2461 15.9767C29.2148 16.008 29.1992 16.0457 29.1992 16.0887C29.1992 16.133 29.2148 16.1694 29.2461 16.2007C29.276 16.2319 29.3138 16.2476 29.3581 16.2476C29.401 16.2476 29.4388 16.2319 29.4701 16.2007C29.5013 16.1694 29.5169 16.133 29.5169 16.0887C29.5169 16.0457 29.5013 16.008 29.4701 15.9767C29.4388 15.9455 29.401 15.9312 29.3581 15.9312Z" fill="white"/>
<path d="M28.5656 16.7212C28.5213 16.7212 28.4836 16.7368 28.4523 16.7681C28.4224 16.7993 28.4067 16.8358 28.4067 16.88C28.4067 16.923 28.4224 16.9608 28.4523 16.992C28.4836 17.022 28.5213 17.0376 28.5656 17.0376C28.6086 17.0376 28.6463 17.022 28.6776 16.992C28.7088 16.9608 28.7231 16.923 28.7231 16.88C28.7231 16.8358 28.7088 16.7993 28.6776 16.7681C28.6463 16.7368 28.6086 16.7212 28.5656 16.7212Z" fill="white"/>
<path d="M30.1506 16.7212C30.1063 16.7212 30.0698 16.7368 30.0386 16.7681C30.0073 16.7993 29.9917 16.8358 29.9917 16.88C29.9917 16.923 30.0073 16.9608 30.0386 16.992C30.0698 17.022 30.1063 17.0376 30.1506 17.0376C30.1948 17.0376 30.2313 17.022 30.2625 16.992C30.2938 16.9608 30.3094 16.923 30.3094 16.88C30.3094 16.8358 30.2938 16.7993 30.2625 16.7681C30.2313 16.7368 30.1948 16.7212 30.1506 16.7212Z" fill="white"/>
<path d="M30.1506 15.1396C30.1063 15.1396 30.0698 15.1553 30.0386 15.1865C30.0073 15.2165 29.9917 15.2542 29.9917 15.2972C29.9917 15.3415 30.0073 15.3792 30.0386 15.4092C30.0698 15.4404 30.1063 15.4561 30.1506 15.4561C30.1948 15.4561 30.2313 15.4404 30.2625 15.4092C30.2938 15.3792 30.3094 15.3415 30.3094 15.2972C30.3094 15.2542 30.2938 15.2165 30.2625 15.1865C30.2313 15.1553 30.1948 15.1396 30.1506 15.1396Z" fill="white"/>
<path d="M29.3581 20.6763C29.3008 20.6776 29.2578 20.701 29.2253 20.7466C29.194 20.7948 29.1901 20.8442 29.211 20.8963C29.2396 20.9601 29.2878 20.9927 29.3581 20.9927C29.4271 20.9927 29.4766 20.9601 29.5039 20.8963C29.5131 20.8768 29.517 20.856 29.517 20.8351C29.517 20.8026 29.5078 20.7739 29.4896 20.7466C29.4584 20.701 29.4141 20.6776 29.3581 20.6763Z" fill="white"/>
<path d="M29.358 19.0952C29.3137 19.0952 29.276 19.1108 29.2447 19.1408C29.2122 19.172 29.1965 19.2098 29.1965 19.2541C29.1965 19.2983 29.2122 19.3361 29.2434 19.3674C29.2747 19.3986 29.3124 19.4142 29.3567 19.4142C29.401 19.4142 29.4387 19.3986 29.47 19.366C29.5012 19.3348 29.5168 19.297 29.5168 19.2541C29.5168 19.2098 29.5012 19.172 29.47 19.1421C29.4387 19.1108 29.401 19.0952 29.358 19.0952Z" fill="white"/>
<path d="M28.5656 19.8877C28.5213 19.8877 28.4836 19.902 28.4536 19.9333C28.4224 19.9645 28.4067 20.001 28.4067 20.0452C28.4067 20.0882 28.4224 20.126 28.4523 20.1572C28.4836 20.1885 28.52 20.2028 28.5643 20.2041C28.6086 20.2041 28.645 20.1885 28.6763 20.1585C28.7075 20.1273 28.7231 20.0895 28.7231 20.0465C28.7244 20.0023 28.7088 19.9645 28.6776 19.9333C28.6463 19.9033 28.6086 19.8877 28.5656 19.8877Z" fill="white"/>
<path d="M30.1506 19.8877C30.1063 19.8877 30.0698 19.902 30.0386 19.9333C30.0073 19.9645 29.9917 20.001 29.9917 20.0452C29.9917 20.0882 30.0073 20.126 30.0386 20.1572C30.0685 20.1885 30.1063 20.2028 30.1493 20.2041C30.1935 20.2041 30.2313 20.1885 30.2625 20.1585C30.2938 20.1273 30.3094 20.0895 30.3094 20.0465C30.3094 20.0023 30.2938 19.9645 30.2625 19.9333C30.2326 19.9033 30.1948 19.8877 30.1506 19.8877Z" fill="white"/>
<path d="M28.5656 18.3037C28.5213 18.3037 28.4836 18.3193 28.4523 18.3506C28.4224 18.3818 28.4067 18.4183 28.4067 18.4626C28.4067 18.5055 28.4224 18.5433 28.4523 18.5745C28.4836 18.6058 28.5213 18.6201 28.5656 18.6201C28.6086 18.6201 28.6463 18.6058 28.6776 18.5745C28.7088 18.5433 28.7231 18.5055 28.7231 18.4626C28.7231 18.4183 28.7088 18.3818 28.6776 18.3506C28.6463 18.3193 28.6086 18.3037 28.5656 18.3037Z" fill="white"/>
<path d="M30.1506 18.3037C30.1063 18.3037 30.0698 18.3193 30.0386 18.3506C30.0073 18.3818 29.9917 18.4183 29.9917 18.4626C29.9917 18.5055 30.0073 18.5433 30.0386 18.5745C30.0698 18.6058 30.1063 18.6201 30.1506 18.6201C30.1948 18.6201 30.2313 18.6058 30.2625 18.5745C30.2938 18.5433 30.3094 18.5055 30.3094 18.4626C30.3094 18.4183 30.2938 18.3818 30.2625 18.3506C30.2313 18.3193 30.1948 18.3037 30.1506 18.3037Z" fill="white"/>
<path d="M27.8034 20.6758C27.793 20.6745 27.7826 20.6745 27.7709 20.6758C27.7448 20.6771 27.7201 20.6823 27.6967 20.6953C27.6732 20.7083 27.655 20.7253 27.6394 20.7474C27.625 20.7695 27.6159 20.793 27.6133 20.8203C27.6107 20.8464 27.6146 20.8711 27.625 20.8958C27.642 20.9362 27.6706 20.9635 27.7097 20.9805C27.7292 20.9883 27.75 20.9922 27.7709 20.9922C27.7826 20.9935 27.793 20.9935 27.8034 20.9922C27.8568 20.9805 27.8933 20.9492 27.9141 20.8997C27.9219 20.8802 27.9258 20.8594 27.9258 20.8372C27.9258 20.806 27.9167 20.776 27.8985 20.75C27.8764 20.7122 27.8451 20.6875 27.8034 20.6758Z" fill="white"/>
<path d="M27.8034 19.1001C27.793 19.0988 27.7826 19.0988 27.7708 19.1001C27.75 19.0988 27.7292 19.104 27.7096 19.1131C27.6458 19.1405 27.6133 19.1886 27.6133 19.2576C27.6133 19.328 27.6458 19.3761 27.7096 19.4035C27.7292 19.4126 27.75 19.4165 27.7708 19.4165C27.7826 19.4178 27.793 19.4178 27.8034 19.4165C27.8867 19.3983 27.9284 19.3462 27.9284 19.2616C27.9284 19.1769 27.8867 19.1248 27.8034 19.1066V19.1001Z" fill="white"/>
<path d="M28.5656 21.4697C28.5213 21.4697 28.4836 21.4854 28.4536 21.5153C28.4224 21.5465 28.4067 21.5843 28.4067 21.6273C28.4067 21.6715 28.4224 21.708 28.4523 21.7393C28.4836 21.7705 28.52 21.7861 28.5643 21.7861C28.6086 21.7861 28.645 21.7705 28.6763 21.7406C28.7075 21.7093 28.7231 21.6729 28.7231 21.6286C28.7244 21.5843 28.7088 21.5479 28.6776 21.5166C28.6463 21.4854 28.6086 21.4697 28.5656 21.4697Z" fill="white"/>
<path d="M30.1506 21.4697C30.1063 21.4697 30.0698 21.4854 30.0386 21.5153C30.0073 21.5465 29.9917 21.5843 29.9917 21.6273C29.9917 21.6715 30.0073 21.708 30.0386 21.7393C30.0685 21.7705 30.1063 21.7861 30.1493 21.7861C30.1935 21.7861 30.2313 21.7705 30.2625 21.7406C30.2938 21.7093 30.3094 21.6729 30.3094 21.6286C30.3094 21.5843 30.2938 21.5479 30.2625 21.5166C30.2326 21.4854 30.1948 21.4697 30.1506 21.4697Z" fill="white"/>
<path d="M26.9779 19.8877C26.935 19.8877 26.8972 19.902 26.866 19.9333C26.8347 19.9645 26.8191 20.001 26.8191 20.0452C26.8191 20.0882 26.8347 20.126 26.866 20.1572C26.8959 20.1885 26.9337 20.2028 26.9779 20.2041C27.0209 20.2041 27.0587 20.1885 27.0899 20.1585C27.1212 20.1273 27.1368 20.0895 27.1368 20.0465C27.1368 20.0023 27.1225 19.9645 27.0912 19.9333C27.06 19.9033 27.0222 19.8877 26.9779 19.8877Z" fill="white"/>
<path d="M26.9779 21.4697C26.935 21.4697 26.8972 21.4854 26.866 21.5153C26.8347 21.5465 26.8191 21.5843 26.8191 21.6273C26.8191 21.6715 26.8347 21.708 26.866 21.7393C26.8959 21.7705 26.9337 21.7861 26.9779 21.7861C27.0209 21.7861 27.0587 21.7705 27.0899 21.7406C27.1212 21.7093 27.1368 21.6729 27.1368 21.6286C27.1368 21.5843 27.1225 21.5479 27.0912 21.5166C27.06 21.4854 27.0222 21.4697 26.9779 21.4697Z" fill="white"/>
</svg>
