<svg xmlns="http://www.w3.org/2000/svg" id="Layer_1" data-name="Layer 1" viewBox="0 0 832.47 702.69" width="832.47" height="702.69"><defs><style>.cls-1{fill:#221f1f;}</style></defs><path class="cls-1" d="M558.22,351.35c9.65-13.38,17.9-28.09,29.18-39.92,69.45-72.85,140-144.64,209.19-217.75,17.8-18.81,37.47-40.18,24-69.66S778.6.57,753.78.41C690.31,0,626.84.28,565.71.28c5.06,13.89,15.65,28.94,14.15,42.68C578.32,57.12,567.12,72,556.5,83.1c-74.94,78.22-150.85,155.52-226.36,233.2-7,7.18-13.38,14.92-23.78,26.6H411.18c38.94,0,77.88.38,116.8.38,20.35,0,30.24,8.07,30.77,7.78Z"></path><path class="cls-1" d="M566.1,360.6c29.52,23.91,31.17,48.26,3.57,76.86C501,508.59,431.81,579.17,363,650.09c-15.63,16.1-30.76,32.7-49.39,52.56,82.72,0,160.23.24,237.74-.42,6.65-.05,14.79-4.5,19.64-9.45,78.61-80.18,157.15-160.43,234.81-241.52,17.48-18.24,35.37-39.47,22.14-67.59-13.09-27.81-40.15-23.18-64.47-23.16q-98.83.11-197.77.33Z"></path><path class="cls-1" d="M275.76,351.35c-9.65,13.37-17.9,28.08-29.17,39.91C177.14,464.11,106.57,535.9,37.4,609c-17.81,18.82-37.48,40.18-24,69.66s42,23.45,66.84,23.61c63.46.4,126.94.13,188.06.13-5.06-13.89-15.65-28.94-14.15-42.68,1.55-14.15,12.75-29.05,23.36-40.14,74.95-78.22,150.85-155.52,226.37-233.2,7-7.17,13.37-14.92,23.77-26.59H422.8c-38.93,0-77.87-.39-116.8-.39-19.32,0-31.62-8.06-30.77-7.78Z"></path><path class="cls-1" d="M266.38,342.09c-29.53-23.91-31.18-48.26-3.57-76.86C331.46,194.1,400.67,123.52,469.53,52.6,485.16,36.5,500.28,19.9,518.91,0,436.2,0,358.68-.19,281.18.46c-6.65.06-14.79,4.5-19.65,9.46Q143.62,130.17,26.72,251.43C9.25,269.67-8.65,290.91,4.58,319c13.09,27.82,40.15,23.19,64.47,23.16q98.85-.1,197.77-.32C266.91,341.8,266.38,342.09,266.38,342.09Z"></path></svg>